<svg width="129" height="131" viewBox="0 0 129 131" fill="none" xmlns="http://www.w3.org/2000/svg">
<g filter="url(#filter0_d_33_7234)">
<path d="M64.2402 28.0782C86.2772 36.2082 99.2402 43.7482 99.2402 63.0782C99.2402 72.3608 95.5527 81.2631 88.989 87.8269C82.4252 94.3907 73.5228 98.0782 64.2402 98.0782C54.9577 98.0782 46.0553 94.3907 39.4915 87.8269C32.9277 81.2631 29.2402 72.3608 29.2402 63.0782C29.2402 43.7482 42.2032 19.9482 64.2402 28.0782Z" fill="#80B500"/>
</g>
<path d="M77.9497 74.4289L76.3917 54.1829C76.3509 53.5606 76.0777 52.9764 75.6263 52.5461C75.1749 52.1158 74.5782 51.8709 73.9547 51.8599H70.8757V51.7149C70.9026 50.8119 70.748 49.9128 70.4211 49.0706C70.0941 48.2285 69.6015 47.4606 68.9723 46.8124C68.3431 46.1642 67.5902 45.6488 66.7582 45.2969C65.9262 44.945 65.0321 44.7637 64.1287 44.7637C63.2253 44.7637 62.3312 44.945 61.4992 45.2969C60.6672 45.6488 59.9143 46.1642 59.2851 46.8124C58.6559 47.4606 58.1633 48.2285 57.8363 49.0706C57.5094 49.9128 57.3548 50.8119 57.3817 51.7149V51.8599H54.3027C53.6803 51.8721 53.0852 52.1172 52.6349 52.547C52.1846 52.9767 51.9119 53.5598 51.8707 54.1809L50.3077 74.4319C50.2478 75.233 50.3497 76.038 50.6074 76.7989C50.8651 77.5598 51.2733 78.2611 51.8077 78.8609C52.3325 79.4484 52.9749 79.9191 53.6933 80.2425C54.4116 80.5658 55.1899 80.7346 55.9777 80.7379H72.2837C73.0715 80.7346 73.8498 80.5658 74.5681 80.2425C75.2865 79.9191 75.9289 79.4484 76.4537 78.8609C76.9876 78.2603 77.3953 77.5584 77.6523 76.797C77.9093 76.0356 78.0104 75.2302 77.9497 74.4289ZM59.4267 51.7149C59.4267 50.4677 59.9221 49.2716 60.804 48.3897C61.6859 47.5078 62.882 47.0124 64.1292 47.0124C65.3764 47.0124 66.5725 47.5078 67.4544 48.3897C68.3362 49.2716 68.8317 50.4677 68.8317 51.7149V51.8599H59.4267V51.7149ZM74.9527 77.4289C74.6184 77.8071 74.2074 78.1097 73.747 78.3166C73.2866 78.5236 72.7874 78.63 72.2827 78.6289H55.9707C55.4659 78.63 54.9668 78.5236 54.5064 78.3166C54.046 78.1097 53.635 77.8071 53.3007 77.4289C52.9565 77.0468 52.694 76.5984 52.5291 76.1113C52.3642 75.6242 52.3004 75.1085 52.3417 74.5959L53.9047 54.3439C53.9112 54.2418 53.9561 54.146 54.0302 54.0755C54.1044 54.0051 54.2024 53.9652 54.3047 53.9639H57.3837V56.5639C57.3794 56.7009 57.4027 56.8373 57.4521 56.9651C57.5016 57.0929 57.5762 57.2094 57.6716 57.3078C57.767 57.4063 57.8811 57.4845 58.0073 57.5379C58.1335 57.5913 58.2692 57.6189 58.4062 57.6189C58.5432 57.6189 58.6789 57.5913 58.805 57.5379C58.9312 57.4845 59.0454 57.4063 59.1408 57.3078C59.2362 57.2094 59.3108 57.0929 59.3602 56.9651C59.4097 56.8373 59.433 56.7009 59.4287 56.5639V53.9599H68.8337V56.5599C68.8294 56.6969 68.8527 56.8333 68.9021 56.9611C68.9516 57.0889 69.0262 57.2054 69.1216 57.3038C69.217 57.4023 69.3311 57.4805 69.4573 57.5339C69.5835 57.5873 69.7192 57.6149 69.8562 57.6149C69.9932 57.6149 70.1289 57.5873 70.255 57.5339C70.3812 57.4805 70.4954 57.4023 70.5908 57.3038C70.6862 57.2054 70.7608 57.0889 70.8102 56.9611C70.8597 56.8333 70.883 56.6969 70.8787 56.5599V53.9599H73.9577C74.0604 53.9615 74.1587 54.0018 74.2329 54.0729C74.3071 54.1439 74.3516 54.2404 74.3577 54.3429L75.9167 74.5889C75.9582 75.103 75.894 75.6201 75.7282 76.1085C75.5625 76.5969 75.2985 77.0463 74.9527 77.4289Z" fill="white"/>
<path d="M68.7348 62.627C68.6414 62.5293 68.5292 62.4515 68.405 62.3984C68.2807 62.3453 68.147 62.3179 68.0118 62.3179C67.8767 62.3179 67.7429 62.3453 67.6187 62.3984C67.4944 62.4515 67.3822 62.5293 67.2888 62.627L62.7238 67.327L60.9718 65.527C60.8784 65.4293 60.7662 65.3515 60.642 65.2984C60.5177 65.2453 60.384 65.2179 60.2488 65.2179C60.1137 65.2179 59.9799 65.2453 59.8557 65.2984C59.7314 65.3515 59.6192 65.4293 59.5258 65.527C59.3338 65.7275 59.2266 65.9944 59.2266 66.272C59.2266 66.5496 59.3338 66.8165 59.5258 67.017L62.0038 69.571C62.0972 69.6687 62.2094 69.7465 62.3336 69.7996C62.4579 69.8528 62.5917 69.8802 62.7268 69.8802C62.862 69.8802 62.9957 69.8528 63.12 69.7996C63.2442 69.7465 63.3564 69.6687 63.4498 69.571L68.7368 64.121C68.9298 63.9201 69.0373 63.6522 69.037 63.3736C69.0366 63.095 68.9283 62.8274 68.7348 62.627Z" fill="white"/>
<defs>
<filter id="filter0_d_33_7234" x="0.240234" y="0.440918" width="128" height="129.637" filterUnits="userSpaceOnUse" color-interpolation-filters="sRGB">
<feFlood flood-opacity="0" result="BackgroundImageFix"/>
<feColorMatrix in="SourceAlpha" type="matrix" values="0 0 0 0 0 0 0 0 0 0 0 0 0 0 0 0 0 0 127 0" result="hardAlpha"/>
<feOffset dy="3"/>
<feGaussianBlur stdDeviation="14.5"/>
<feColorMatrix type="matrix" values="0 0 0 0 0.376471 0 0 0 0 0.403922 0 0 0 0 0.478431 0 0 0 0.129 0"/>
<feBlend mode="normal" in2="BackgroundImageFix" result="effect1_dropShadow_33_7234"/>
<feBlend mode="normal" in="SourceGraphic" in2="effect1_dropShadow_33_7234" result="shape"/>
</filter>
</defs>
</svg>
