<svg width="129" height="130" viewBox="0 0 129 130" fill="none" xmlns="http://www.w3.org/2000/svg">
<g filter="url(#filter0_d_33_7210)">
<path d="M64.2402 27.6873C86.2772 35.8173 99.2402 43.3573 99.2402 62.6873C99.2402 71.9699 95.5527 80.8723 88.989 87.436C82.4252 93.9998 73.5228 97.6873 64.2402 97.6873C54.9577 97.6873 46.0553 93.9998 39.4915 87.436C32.9277 80.8723 29.2402 71.9699 29.2402 62.6873C29.2402 43.3573 42.2032 19.5573 64.2402 27.6873Z" fill="#80B500"/>
</g>
<path d="M70.684 76.427C70.6764 76.7225 70.5517 77.003 70.3373 77.2066C70.123 77.4103 69.8365 77.5205 69.541 77.513H55.593C54.4113 77.5415 53.2666 77.1005 52.4095 76.2867C51.5523 75.4728 51.0527 74.3525 51.02 73.171V61.121C51.0275 60.8254 51.1522 60.5449 51.3666 60.3413C51.5809 60.1376 51.8674 60.0274 52.163 60.035C52.3094 60.0311 52.4552 60.0561 52.5919 60.1086C52.7287 60.1611 52.8537 60.2401 52.96 60.3409C53.0662 60.4418 53.1515 60.5626 53.2111 60.6964C53.2706 60.8303 53.3032 60.9745 53.307 61.121V73.171C53.3237 73.7614 53.5736 74.3212 54.002 74.7278C54.4304 75.1345 55.0024 75.3549 55.593 75.341H69.541C69.8365 75.3334 70.123 75.4436 70.3373 75.6473C70.5517 75.8509 70.6764 76.1314 70.684 76.427ZM79.144 52.978V56.235C79.1364 56.5305 79.0117 56.811 78.7973 57.0146C78.583 57.2183 78.2965 57.3285 78.001 57.321V65.246C77.9837 65.5374 77.8558 65.8113 77.6433 66.0115C77.4309 66.2118 77.1499 66.3233 76.858 66.3233C76.566 66.3233 76.2851 66.2118 76.0726 66.0115C75.8601 65.8113 75.7322 65.5374 75.715 65.246V57.321H51.02C50.7244 57.3285 50.4379 57.2183 50.2236 57.0146C50.0092 56.811 49.8845 56.5305 49.877 56.235V52.978C49.9013 52.0917 50.276 51.2512 50.9189 50.6407C51.5619 50.0302 52.4206 49.6995 53.307 49.721H75.714C76.6003 49.6995 77.459 50.0302 78.102 50.6407C78.7449 51.2512 79.1196 52.0917 79.144 52.978ZM52.163 55.149H76.857V52.978C76.8488 52.6826 76.724 52.4024 76.5098 52.1989C76.2955 51.9953 76.0094 51.885 75.714 51.892H53.307C53.0114 51.8847 52.7249 51.9949 52.5105 52.1985C52.2961 52.4021 52.1711 52.6824 52.163 52.978V55.149ZM67.025 61.663C67.1723 61.6707 67.3197 61.6484 67.4581 61.5973C67.5966 61.5463 67.7232 61.4676 67.8302 61.366C67.9372 61.2644 68.0225 61.1422 68.0807 61.0066C68.139 60.871 68.169 60.725 68.169 60.5775C68.169 60.4299 68.139 60.2839 68.0807 60.1483C68.0225 60.0128 67.9372 59.8905 67.8302 59.7889C67.7232 59.6873 67.5966 59.6086 67.4581 59.5576C67.3197 59.5065 67.1723 59.4842 67.025 59.492H61.877C61.7296 59.4842 61.5822 59.5065 61.4438 59.5576C61.3053 59.6086 61.1787 59.6873 61.0717 59.7889C60.9647 59.8905 60.8794 60.0128 60.8212 60.1483C60.7629 60.2839 60.7329 60.4299 60.7329 60.5775C60.7329 60.725 60.7629 60.871 60.8212 61.0066C60.8794 61.1422 60.9647 61.2644 61.0717 61.366C61.1787 61.4676 61.3053 61.5463 61.4438 61.5973C61.5822 61.6484 61.7296 61.6707 61.877 61.663H67.025ZM74.084 67.905H68.054L69.486 66.56C69.5922 66.4626 69.6771 66.3443 69.7355 66.2126C69.7939 66.0809 69.8245 65.9385 69.8253 65.7944C69.8262 65.6503 69.7973 65.5076 69.7404 65.3752C69.6836 65.2428 69.6 65.1236 69.495 65.025C69.2759 64.8196 68.987 64.7049 68.6867 64.7042C68.3864 64.7035 68.097 64.8167 67.877 65.021L65.754 67.015C65.4872 67.2581 65.2741 67.5542 65.1281 67.8843C64.982 68.2143 64.9063 68.5712 64.9058 68.9321C64.9052 69.2931 64.9798 69.6502 65.1248 69.9807C65.2698 70.3112 65.482 70.6079 65.748 70.852L67.877 72.854C68.0966 73.0583 68.3855 73.1719 68.6855 73.1719C68.9854 73.1719 69.2743 73.0583 69.494 72.854C69.5996 72.756 69.6838 72.6372 69.7414 72.5051C69.7991 72.3731 69.8288 72.2305 69.8288 72.0865C69.8288 71.9424 69.7991 71.7998 69.7414 71.6678C69.6838 71.5357 69.5996 71.417 69.494 71.319L68.177 70.076H74.084C74.4391 70.0585 74.7942 70.113 75.1277 70.2364C75.4612 70.3598 75.7663 70.5493 76.0246 70.7937C76.2829 71.0381 76.4891 71.3323 76.6307 71.6585C76.7723 71.9847 76.8464 72.3362 76.8485 72.6918C76.8507 73.0473 76.7809 73.3997 76.6432 73.7276C76.5056 74.0555 76.303 74.3521 76.0477 74.5996C75.7924 74.8472 75.4896 75.0404 75.1576 75.1678C74.8257 75.2952 74.4713 75.3541 74.116 75.341C73.9686 75.3332 73.8212 75.3555 73.6828 75.4066C73.5443 75.4576 73.4177 75.5363 73.3107 75.6379C73.2037 75.7395 73.1184 75.8618 73.0602 75.9973C73.0019 76.1329 72.9719 76.2789 72.9719 76.4265C72.9719 76.574 73.0019 76.72 73.0602 76.8556C73.1184 76.9912 73.2037 77.1134 73.3107 77.215C73.4177 77.3166 73.5443 77.3953 73.6828 77.4463C73.8212 77.4974 73.9686 77.5197 74.116 77.512C75.4426 77.522 76.7213 77.016 77.682 76.101C78.1434 75.6644 78.5109 75.1384 78.7621 74.555C79.0133 73.9716 79.1429 73.3431 79.143 72.708C79.1058 71.4015 78.5526 70.163 77.6045 69.2634C76.6564 68.3639 75.3905 67.8765 74.084 67.908V67.905Z" fill="white"/>
<defs>
<filter id="filter0_d_33_7210" x="0.240234" y="0.0500488" width="128" height="129.637" filterUnits="userSpaceOnUse" color-interpolation-filters="sRGB">
<feFlood flood-opacity="0" result="BackgroundImageFix"/>
<feColorMatrix in="SourceAlpha" type="matrix" values="0 0 0 0 0 0 0 0 0 0 0 0 0 0 0 0 0 0 127 0" result="hardAlpha"/>
<feOffset dy="3"/>
<feGaussianBlur stdDeviation="14.5"/>
<feColorMatrix type="matrix" values="0 0 0 0 0.882353 0 0 0 0 0.141176 0 0 0 0 0.329412 0 0 0 0.11 0"/>
<feBlend mode="normal" in2="BackgroundImageFix" result="effect1_dropShadow_33_7210"/>
<feBlend mode="normal" in="SourceGraphic" in2="effect1_dropShadow_33_7210" result="shape"/>
</filter>
</defs>
</svg>
