<svg width="129" height="130" viewBox="0 0 129 130" fill="none" xmlns="http://www.w3.org/2000/svg">
<g filter="url(#filter0_d_33_7219)">
<path d="M64.1777 27.649C86.2147 35.779 99.1777 43.319 99.1777 62.649C99.1777 71.9316 95.4902 80.8339 88.9265 87.3977C82.3627 93.9615 73.4603 97.649 64.1777 97.649C54.8952 97.649 45.9928 93.9615 39.429 87.3977C32.8652 80.8339 29.1777 71.9316 29.1777 62.649C29.1777 43.319 42.1407 19.519 64.1777 27.649Z" fill="#80B500"/>
</g>
<path d="M80.3213 67.1393H77.0583V63.3153C77.0556 61.8196 76.7391 60.3411 76.1293 58.9754C75.5196 57.6096 74.6301 56.3869 73.5183 55.3863C74.297 53.7203 75.4256 52.2417 76.8273 51.0513C76.9287 50.9684 77.0016 50.8559 77.0359 50.7295C77.0701 50.603 77.064 50.4691 77.0183 50.3463C76.9708 50.2228 76.8868 50.1166 76.7775 50.0419C76.6682 49.9673 76.5387 49.9276 76.4063 49.9283C74.7099 49.8869 73.0287 50.2567 71.5063 51.0063C71.7665 50.5805 72.0544 50.1722 72.3683 49.7843C72.927 49.0909 73.5469 48.449 74.2203 47.8663C74.3219 47.7833 74.395 47.6706 74.4292 47.544C74.4635 47.4174 74.4572 47.2832 74.4113 47.1603C74.3641 47.0364 74.2803 46.9298 74.1709 46.8547C74.0616 46.7797 73.932 46.7398 73.7993 46.7403C72.1989 46.7067 70.6113 47.0323 69.1533 47.6933C68.9703 46.3603 68.3533 44.0053 66.2583 42.9833C66.1674 42.939 66.0675 42.916 65.9663 42.916C65.8652 42.916 65.7653 42.939 65.6743 42.9833C63.5843 44.0043 62.9643 46.3553 62.7803 47.6893C61.3221 47.0295 59.7345 46.7052 58.1343 46.7403C58.0019 46.7396 57.8725 46.7793 57.7632 46.8539C57.6538 46.9286 57.5698 47.0348 57.5223 47.1583C57.4763 47.2811 57.4699 47.4152 57.504 47.5418C57.5381 47.6684 57.6109 47.7812 57.7123 47.8643C58.3859 48.4473 59.0057 49.0895 59.5643 49.7833C59.8774 50.1704 60.1647 50.5776 60.4243 51.0023C58.9015 50.2544 57.2204 49.8859 55.5243 49.9283C55.392 49.9276 55.2625 49.9673 55.1532 50.0419C55.0438 50.1166 54.9598 50.2228 54.9123 50.3463C54.8663 50.4691 54.8599 50.6032 54.894 50.7298C54.9281 50.8564 55.0009 50.9692 55.1023 51.0523C56.5042 52.2426 57.6329 53.7212 58.4113 55.3873C57.2996 56.3879 56.4101 57.6106 55.8003 58.9764C55.1906 60.3421 54.8741 61.8206 54.8713 63.3163V63.3893C54.0987 63.5173 53.358 63.7926 52.6893 64.2003C52.6168 64.2533 52.5406 64.301 52.4613 64.3433C52.5294 63.0024 52.8678 61.6891 53.4563 60.4823C53.5038 60.4128 53.5369 60.3345 53.5535 60.252C53.5701 60.1695 53.57 60.0844 53.5531 60.002C53.5362 59.9195 53.5029 59.8413 53.4552 59.7719C53.4075 59.7026 53.3463 59.6436 53.2753 59.5983C53.1311 59.5044 52.9559 59.4703 52.7869 59.5033C52.618 59.5364 52.4686 59.6339 52.3703 59.7753C51.6092 61.2363 51.1864 62.8498 51.1333 64.4963C50.9148 64.4356 50.7091 64.3357 50.5263 64.2013C49.6668 63.6871 48.6977 63.3838 47.6983 63.3163C46.8807 63.305 46.0703 63.47 45.3222 63.8001C44.5742 64.1302 43.906 64.6177 43.3633 65.2293C42.7325 65.9808 42.2744 66.8616 42.0215 67.8096C41.7685 68.7575 41.7268 69.7495 41.8993 70.7153L42.3073 73.3913C42.5622 75.0919 43.1298 76.7305 43.9813 78.2243C44.4587 79.1035 45.1615 79.8396 46.0176 80.3572C46.8736 80.8748 47.8521 81.1551 48.8523 81.1693C49.3335 81.1688 49.8124 81.1039 50.2763 80.9763L50.3203 80.9623L51.4123 80.5813C51.534 80.5384 51.6667 80.5384 51.7883 80.5813L52.8803 80.9623L52.9243 80.9763C53.3883 81.1039 53.8672 81.1688 54.3483 81.1693C55.7968 81.1606 57.1829 80.5785 58.2033 79.5503C61.1492 80.9598 64.447 81.4637 67.6794 80.9984C70.9118 80.5331 73.9336 79.1194 76.3623 76.9363C77.728 75.8171 78.8438 74.424 79.6379 72.847C80.4319 71.2699 80.8865 69.5439 80.9723 67.7803C80.9718 67.6955 80.9545 67.6115 80.9215 67.5333C80.8885 67.4552 80.8404 67.3842 80.7799 67.3247C80.7194 67.2652 80.6478 67.2181 80.5691 67.1863C80.4904 67.1545 80.4062 67.1385 80.3213 67.1393ZM63.2063 63.9393L65.9703 61.3173L68.7403 63.9433L65.9773 66.5653L63.2063 63.9393ZM64.7063 67.1393H60.9763C60.881 66.8788 60.7684 66.6249 60.6393 66.3793L62.2693 64.8333L64.7063 67.1393ZM69.6763 64.8393L72.1043 67.1393H67.2463L69.6763 64.8393ZM66.9063 60.4393L69.6693 57.8153L72.4413 60.4453L69.6783 63.0623L66.9063 60.4393ZM67.3633 53.8563C68.5598 54.0243 69.7152 54.4104 70.7723 54.9953L69.6723 56.0433L67.3633 53.8563ZM68.7313 56.9313L65.9693 59.5513L63.2093 56.9343L65.9713 54.3143L68.7313 56.9313ZM62.2723 56.0453L61.1593 54.9903C62.2212 54.4046 63.3819 54.0195 64.5833 53.8543L62.2723 56.0453ZM62.2723 57.8223L65.0333 60.4403L62.2683 63.0633L59.5043 60.4493L62.2723 57.8223ZM61.3303 63.9513L59.9053 65.3033L59.8463 65.2343C58.9575 64.2268 57.7371 63.5712 56.4063 63.3863L58.5663 61.3373L61.3303 63.9513ZM60.8993 73.3883L61.2993 70.7153C61.4172 69.9532 61.4172 69.1775 61.2993 68.4153H76.9423C76.4495 70.7217 75.1901 72.7932 73.3693 74.2923C71.1362 76.2431 68.2755 77.325 65.3103 77.3403C63.5347 77.3337 61.7819 76.9395 60.1743 76.1853C60.5097 75.2791 60.7513 74.3408 60.8953 73.3853L60.8993 73.3883ZM74.6523 67.1403L75.7523 66.0953V67.1403H74.6523ZM75.7523 64.3203L73.3763 66.5683L70.6153 63.9503L73.3783 61.3333L75.7523 63.5853V64.3203ZM75.6063 61.6693L74.3153 60.4443L75.0463 59.7513C75.3016 60.3687 75.4887 61.0117 75.6063 61.6693ZM74.4453 58.5453L73.3793 59.5553L70.6063 56.9253L71.8893 55.7083C72.921 56.4751 73.7901 57.4391 74.4463 58.5443L74.4453 58.5453ZM74.6883 51.3243C73.7822 52.2715 73.0312 53.3559 72.4633 54.5373C71.8777 54.123 71.2535 53.766 70.5993 53.4713C70.6073 53.3713 70.6203 53.2713 70.6363 53.1713C71.7639 52.1529 73.1782 51.5072 74.6863 51.3223L74.6883 51.3243ZM72.0763 48.1373C70.7299 49.4687 69.7841 51.1511 69.3463 52.9933C68.5775 52.7524 67.7849 52.5948 66.9823 52.5233C66.9053 52.2913 66.8073 52.0283 66.6823 51.7463C67.2188 50.7505 67.9908 49.9011 68.9311 49.2722C69.8713 48.6432 70.9511 48.253 72.0763 48.1373ZM65.9613 44.2863C67.5783 45.3153 67.8613 47.6753 67.9093 48.4223C67.1441 48.9701 66.4839 49.6513 65.9603 50.4333C65.4374 49.6509 64.7779 48.969 64.0133 48.4203C64.0643 47.6723 64.3453 45.3153 65.9613 44.2863ZM59.8473 48.1383C61.1104 48.2663 62.3139 48.7395 63.3258 49.5061C64.3378 50.2727 65.1192 51.3031 65.5843 52.4843C64.5636 52.5171 63.552 52.6883 62.5773 52.9933C62.5567 52.864 62.5317 52.7353 62.5023 52.6073L62.5253 52.5863L62.4893 52.5493C61.9796 50.8869 61.0733 49.3734 59.8483 48.1393L59.8473 48.1383ZM57.2343 51.3243C58.7433 51.5087 60.1582 52.1553 61.2853 53.1753C61.3013 53.2753 61.3133 53.3753 61.3213 53.4753C60.6683 53.7702 60.045 54.1271 59.4603 54.5413C58.8929 53.3584 58.1419 52.2727 57.2353 51.3243H57.2343ZM60.0433 55.7023L61.3353 56.9273L58.5653 59.5543L57.4853 58.5323C58.1422 57.4292 59.0123 56.4673 60.0433 55.7023ZM56.8823 59.7373L57.6283 60.4433L56.3123 61.6913C56.4304 61.0211 56.6215 60.3659 56.8823 59.7373ZM58.0823 77.6003C57.7176 78.2794 57.1789 78.8493 56.5213 79.2516C55.8637 79.6538 55.111 79.8739 54.3403 79.8893C53.9895 79.8893 53.6402 79.8432 53.3013 79.7523L52.2323 79.3793C51.8256 79.2377 51.383 79.2377 50.9763 79.3793L49.9063 79.7533C48.9837 79.9817 48.011 79.8938 47.1442 79.5038C46.2774 79.1138 45.5665 78.4443 45.1253 77.6023C44.3507 76.2422 43.8347 74.7504 43.6033 73.2023L43.1993 70.5253C43.0538 69.7422 43.0816 68.9367 43.2808 68.1655C43.48 67.3943 43.8458 66.676 44.3523 66.0613C44.7718 65.59 45.2878 65.2147 45.8654 64.9608C46.443 64.707 47.0685 64.5806 47.6993 64.5903C48.4165 64.6585 49.1122 64.873 49.7433 65.2203C50.1244 65.5005 50.5636 65.6915 51.0283 65.7793C50.9963 66.2863 50.9783 66.7323 50.9683 67.0743C50.6527 67.0165 50.3561 66.8823 50.1043 66.6833L50.1113 66.6903C49.9875 66.5706 49.822 66.5037 49.6498 66.5037C49.4776 66.5037 49.3122 66.5706 49.1883 66.6903C49.1281 66.7488 49.0802 66.8187 49.0475 66.896C49.0148 66.9733 48.9979 67.0564 48.9979 67.1403C48.9979 67.2243 49.0148 67.3073 49.0475 67.3846C49.0802 67.4619 49.1281 67.5319 49.1883 67.5903C49.8605 68.1573 50.7208 68.4517 51.5993 68.4153C52.4809 68.4545 53.3449 68.1603 54.0193 67.5913C54.0796 67.5329 54.1275 67.4629 54.1602 67.3856C54.1929 67.3083 54.2097 67.2253 54.2097 67.1413C54.2097 67.0574 54.1929 66.9743 54.1602 66.897C54.1275 66.8197 54.0796 66.7498 54.0193 66.6913C53.8955 66.5716 53.73 66.5047 53.5578 66.5047C53.3856 66.5047 53.2202 66.5716 53.0963 66.6913C52.8521 66.8802 52.5673 67.0096 52.2643 67.0693C52.2753 66.6843 52.2963 66.2333 52.3293 65.7493C52.7393 65.6511 53.1256 65.4719 53.4653 65.2223C54.0965 64.8751 54.7922 64.6607 55.5093 64.5923C56.1402 64.5826 56.7657 64.709 57.3433 64.9628C57.9208 65.2167 58.4369 65.592 58.8563 66.0633C59.3629 66.678 59.7286 67.3963 59.9278 68.1675C60.127 68.9387 60.1548 69.7442 60.0093 70.5273L59.5993 73.2003C59.3692 74.7481 58.8556 76.2399 58.0823 77.6003ZM75.4823 75.9913C73.2856 77.9698 70.5587 79.2634 67.6368 79.713C64.7149 80.1627 61.7252 79.7488 59.0353 78.5223C59.0983 78.4223 59.1603 78.3223 59.2183 78.2223C59.379 77.941 59.5293 77.655 59.6693 77.3643C61.4374 78.1825 63.3612 78.6092 65.3093 78.6153C68.5924 78.6006 71.7605 77.4047 74.2343 75.2463C76.3368 73.512 77.7631 71.0943 78.2643 68.4153H79.6443C79.2767 71.3792 77.7885 74.09 75.4853 75.9913H75.4823Z" fill="white"/>
<path d="M73.7956 70.9632C74.1562 70.9632 74.4486 70.678 74.4486 70.3262C74.4486 69.9744 74.1562 69.6892 73.7956 69.6892C73.4349 69.6892 73.1426 69.9744 73.1426 70.3262C73.1426 70.678 73.4349 70.9632 73.7956 70.9632Z" fill="white"/>
<path d="M70.5319 74.1502C70.8925 74.1502 71.1849 73.865 71.1849 73.5132C71.1849 73.1614 70.8925 72.8762 70.5319 72.8762C70.1713 72.8762 69.8789 73.1614 69.8789 73.5132C69.8789 73.865 70.1713 74.1502 70.5319 74.1502Z" fill="white"/>
<path d="M67.2682 72.2384C67.6289 72.2384 67.9212 71.9532 67.9212 71.6014C67.9212 71.2496 67.6289 70.9644 67.2682 70.9644C66.9076 70.9644 66.6152 71.2496 66.6152 71.6014C66.6152 71.9532 66.9076 72.2384 67.2682 72.2384Z" fill="white"/>
<path d="M63.3522 72.2384C63.7129 72.2384 64.0052 71.9532 64.0052 71.6014C64.0052 71.2496 63.7129 70.9644 63.3522 70.9644C62.9916 70.9644 62.6992 71.2496 62.6992 71.6014C62.6992 71.9532 62.9916 72.2384 63.3522 72.2384Z" fill="white"/>
<path d="M65.3112 76.0633C65.6718 76.0633 65.9642 75.7781 65.9642 75.4263C65.9642 75.0745 65.6718 74.7893 65.3112 74.7893C64.9506 74.7893 64.6582 75.0745 64.6582 75.4263C64.6582 75.7781 64.9506 76.0633 65.3112 76.0633Z" fill="white"/>
<defs>
<filter id="filter0_d_33_7219" x="0.177734" y="0.0117188" width="128" height="129.637" filterUnits="userSpaceOnUse" color-interpolation-filters="sRGB">
<feFlood flood-opacity="0" result="BackgroundImageFix"/>
<feColorMatrix in="SourceAlpha" type="matrix" values="0 0 0 0 0 0 0 0 0 0 0 0 0 0 0 0 0 0 127 0" result="hardAlpha"/>
<feOffset dy="3"/>
<feGaussianBlur stdDeviation="14.5"/>
<feColorMatrix type="matrix" values="0 0 0 0 0.376471 0 0 0 0 0.403922 0 0 0 0 0.478431 0 0 0 0.129 0"/>
<feBlend mode="normal" in2="BackgroundImageFix" result="effect1_dropShadow_33_7219"/>
<feBlend mode="normal" in="SourceGraphic" in2="effect1_dropShadow_33_7219" result="shape"/>
</filter>
</defs>
</svg>
