<svg width="1035" height="293" viewBox="0 0 1035 293" fill="none" xmlns="http://www.w3.org/2000/svg">
<path d="M905.229 228.757C904.988 228.757 904.798 228.688 904.659 228.548C904.519 228.396 904.45 228.194 904.45 227.94V216.578H900.175C899.947 216.578 899.769 216.515 899.643 216.388C899.516 216.262 899.453 216.097 899.453 215.894C899.453 215.679 899.516 215.514 899.643 215.4C899.769 215.286 899.947 215.229 900.175 215.229H910.302C910.53 215.229 910.707 215.286 910.834 215.4C910.96 215.514 911.024 215.679 911.024 215.894C911.024 216.11 910.96 216.281 910.834 216.407C910.707 216.521 910.53 216.578 910.302 216.578H906.027V227.94C906.027 228.194 905.957 228.396 905.818 228.548C905.691 228.688 905.495 228.757 905.229 228.757ZM914.774 228.795C913.875 228.795 913.096 228.599 912.437 228.206C911.779 227.814 911.266 227.263 910.898 226.553C910.544 225.831 910.366 224.983 910.366 224.007C910.366 223.273 910.468 222.614 910.67 222.031C910.873 221.436 911.171 220.929 911.563 220.511C911.956 220.093 912.418 219.777 912.95 219.561C913.495 219.333 914.103 219.219 914.774 219.219C915.674 219.219 916.453 219.416 917.111 219.808C917.77 220.201 918.277 220.758 918.631 221.48C918.999 222.19 919.182 223.032 919.182 224.007C919.182 224.742 919.081 225.401 918.878 225.983C918.676 226.566 918.378 227.073 917.985 227.503C917.593 227.921 917.124 228.244 916.579 228.472C916.047 228.688 915.446 228.795 914.774 228.795ZM914.774 227.56C915.344 227.56 915.845 227.421 916.275 227.142C916.706 226.864 917.035 226.458 917.263 225.926C917.504 225.394 917.624 224.755 917.624 224.007C917.624 222.855 917.365 221.974 916.845 221.366C916.339 220.758 915.648 220.454 914.774 220.454C914.192 220.454 913.685 220.594 913.254 220.872C912.836 221.138 912.507 221.537 912.266 222.069C912.038 222.589 911.924 223.235 911.924 224.007C911.924 225.147 912.184 226.028 912.703 226.648C913.223 227.256 913.913 227.56 914.774 227.56ZM925.106 228.795C924.384 228.795 923.776 228.669 923.282 228.415C922.801 228.149 922.44 227.769 922.199 227.275C921.958 226.769 921.838 226.154 921.838 225.432V220.587H920.565C920.35 220.587 920.185 220.537 920.071 220.435C919.957 220.321 919.9 220.169 919.9 219.979C919.9 219.789 919.957 219.644 920.071 219.542C920.185 219.441 920.35 219.39 920.565 219.39H921.838V217.205C921.838 216.952 921.908 216.762 922.047 216.635C922.186 216.496 922.376 216.426 922.617 216.426C922.858 216.426 923.041 216.496 923.168 216.635C923.307 216.762 923.377 216.952 923.377 217.205V219.39H925.771C925.986 219.39 926.151 219.441 926.265 219.542C926.379 219.644 926.436 219.789 926.436 219.979C926.436 220.169 926.379 220.321 926.265 220.435C926.151 220.537 925.986 220.587 925.771 220.587H923.377V225.28C923.377 226.002 923.529 226.553 923.833 226.933C924.137 227.301 924.631 227.484 925.315 227.484C925.556 227.484 925.758 227.459 925.923 227.408C926.1 227.358 926.246 227.332 926.36 227.332C926.474 227.32 926.569 227.358 926.645 227.446C926.721 227.535 926.759 227.687 926.759 227.902C926.759 228.054 926.727 228.194 926.664 228.32C926.613 228.447 926.518 228.536 926.379 228.586C926.227 228.637 926.024 228.681 925.771 228.719C925.53 228.77 925.309 228.795 925.106 228.795ZM930.951 228.795C930.317 228.795 929.747 228.675 929.241 228.434C928.747 228.181 928.354 227.839 928.063 227.408C927.771 226.978 927.626 226.496 927.626 225.964C927.626 225.28 927.797 224.742 928.139 224.349C928.493 223.957 929.07 223.678 929.868 223.513C930.678 223.349 931.78 223.266 933.174 223.266H934.029V224.273H933.193C932.167 224.273 931.356 224.324 930.761 224.425C930.178 224.514 929.766 224.672 929.526 224.9C929.298 225.128 929.184 225.451 929.184 225.869C929.184 226.389 929.361 226.813 929.716 227.142C930.083 227.472 930.577 227.636 931.198 227.636C931.704 227.636 932.148 227.516 932.528 227.275C932.92 227.035 933.224 226.705 933.44 226.287C933.668 225.869 933.782 225.388 933.782 224.843V222.677C933.782 221.892 933.623 221.328 933.307 220.986C932.99 220.632 932.471 220.454 931.749 220.454C931.305 220.454 930.862 220.511 930.419 220.625C929.975 220.739 929.507 220.923 929.013 221.176C928.835 221.265 928.683 221.297 928.557 221.271C928.43 221.233 928.329 221.164 928.253 221.062C928.177 220.961 928.132 220.847 928.12 220.72C928.107 220.581 928.132 220.448 928.196 220.321C928.272 220.195 928.386 220.093 928.538 220.017C929.095 219.739 929.646 219.536 930.191 219.409C930.735 219.283 931.255 219.219 931.749 219.219C932.547 219.219 933.205 219.352 933.725 219.618C934.244 219.872 934.63 220.264 934.884 220.796C935.137 221.316 935.264 221.987 935.264 222.81V227.959C935.264 228.213 935.2 228.409 935.074 228.548C934.96 228.688 934.789 228.757 934.561 228.757C934.32 228.757 934.136 228.688 934.01 228.548C933.883 228.409 933.82 228.213 933.82 227.959V226.477H933.991C933.889 226.959 933.693 227.37 933.402 227.712C933.123 228.054 932.775 228.32 932.357 228.51C931.939 228.7 931.47 228.795 930.951 228.795ZM940.931 228.795C940.019 228.795 939.322 228.517 938.841 227.959C938.359 227.402 938.119 226.604 938.119 225.565V215.875C938.119 215.622 938.182 215.432 938.309 215.305C938.435 215.166 938.625 215.096 938.879 215.096C939.119 215.096 939.309 215.166 939.449 215.305C939.588 215.432 939.658 215.622 939.658 215.875V225.451C939.658 226.135 939.791 226.648 940.057 226.99C940.335 227.32 940.741 227.484 941.273 227.484C941.387 227.484 941.488 227.478 941.577 227.465C941.665 227.453 941.754 227.446 941.843 227.446C941.982 227.434 942.077 227.465 942.128 227.541C942.191 227.617 942.223 227.769 942.223 227.997C942.223 228.225 942.172 228.396 942.071 228.51C941.969 228.624 941.805 228.7 941.577 228.738C941.475 228.751 941.368 228.764 941.254 228.776C941.14 228.789 941.032 228.795 940.931 228.795ZM954.643 228.795C953.326 228.795 952.199 228.517 951.261 227.959C950.324 227.402 949.602 226.61 949.095 225.584C948.601 224.558 948.354 223.336 948.354 221.917C948.354 220.853 948.494 219.903 948.772 219.067C949.064 218.219 949.475 217.503 950.007 216.92C950.552 216.325 951.217 215.869 952.002 215.552C952.788 215.223 953.668 215.058 954.643 215.058C955.429 215.058 956.176 215.172 956.885 215.4C957.595 215.616 958.209 215.939 958.728 216.369C958.893 216.496 959.001 216.642 959.051 216.806C959.115 216.958 959.121 217.11 959.07 217.262C959.032 217.402 958.956 217.522 958.842 217.623C958.741 217.712 958.614 217.756 958.462 217.756C958.31 217.756 958.139 217.693 957.949 217.566C957.493 217.199 956.993 216.927 956.448 216.749C955.904 216.572 955.315 216.483 954.681 216.483C953.681 216.483 952.832 216.699 952.135 217.129C951.439 217.547 950.913 218.162 950.558 218.972C950.204 219.783 950.026 220.765 950.026 221.917C950.026 223.07 950.204 224.058 950.558 224.881C950.913 225.692 951.439 226.313 952.135 226.743C952.832 227.161 953.681 227.37 954.681 227.37C955.302 227.37 955.891 227.282 956.448 227.104C957.006 226.914 957.519 226.636 957.987 226.268C958.177 226.142 958.348 226.085 958.5 226.097C958.652 226.097 958.779 226.142 958.88 226.23C958.982 226.319 959.051 226.433 959.089 226.572C959.14 226.712 959.14 226.857 959.089 227.009C959.051 227.161 958.956 227.294 958.804 227.408C958.272 227.864 957.645 228.213 956.923 228.453C956.214 228.681 955.454 228.795 954.643 228.795ZM964.594 228.795C963.694 228.795 962.915 228.599 962.257 228.206C961.598 227.814 961.085 227.263 960.718 226.553C960.363 225.831 960.186 224.983 960.186 224.007C960.186 223.273 960.287 222.614 960.49 222.031C960.692 221.436 960.99 220.929 961.383 220.511C961.775 220.093 962.238 219.777 962.77 219.561C963.314 219.333 963.922 219.219 964.594 219.219C965.493 219.219 966.272 219.416 966.931 219.808C967.589 220.201 968.096 220.758 968.451 221.48C968.818 222.19 969.002 223.032 969.002 224.007C969.002 224.742 968.9 225.401 968.698 225.983C968.495 226.566 968.197 227.073 967.805 227.503C967.412 227.921 966.943 228.244 966.399 228.472C965.867 228.688 965.265 228.795 964.594 228.795ZM964.594 227.56C965.164 227.56 965.664 227.421 966.095 227.142C966.525 226.864 966.855 226.458 967.083 225.926C967.323 225.394 967.444 224.755 967.444 224.007C967.444 222.855 967.184 221.974 966.665 221.366C966.158 220.758 965.468 220.454 964.594 220.454C964.011 220.454 963.504 220.594 963.074 220.872C962.656 221.138 962.326 221.537 962.086 222.069C961.858 222.589 961.744 223.235 961.744 224.007C961.744 225.147 962.003 226.028 962.523 226.648C963.042 227.256 963.732 227.56 964.594 227.56ZM972.073 228.757C971.82 228.757 971.63 228.688 971.503 228.548C971.376 228.409 971.313 228.213 971.313 227.959V220.036C971.313 219.783 971.376 219.593 971.503 219.466C971.63 219.327 971.813 219.257 972.054 219.257C972.295 219.257 972.478 219.327 972.605 219.466C972.744 219.593 972.814 219.783 972.814 220.036V221.67L972.605 221.442C972.871 220.708 973.302 220.157 973.897 219.789C974.505 219.409 975.202 219.219 975.987 219.219C976.722 219.219 977.33 219.352 977.811 219.618C978.305 219.884 978.672 220.29 978.913 220.834C979.154 221.366 979.274 222.044 979.274 222.867V227.959C979.274 228.213 979.204 228.409 979.065 228.548C978.938 228.688 978.755 228.757 978.514 228.757C978.261 228.757 978.064 228.688 977.925 228.548C977.798 228.409 977.735 228.213 977.735 227.959V222.962C977.735 222.101 977.564 221.474 977.222 221.081C976.893 220.676 976.361 220.473 975.626 220.473C974.777 220.473 974.1 220.739 973.593 221.271C973.099 221.791 972.852 222.487 972.852 223.361V227.959C972.852 228.491 972.592 228.757 972.073 228.757ZM985.228 228.795C984.658 228.795 984.082 228.726 983.499 228.586C982.929 228.447 982.397 228.206 981.903 227.864C981.776 227.776 981.688 227.674 981.637 227.56C981.586 227.434 981.567 227.313 981.58 227.199C981.605 227.073 981.656 226.965 981.732 226.876C981.821 226.788 981.922 226.737 982.036 226.724C982.163 226.699 982.302 226.724 982.454 226.8C982.948 227.104 983.423 227.32 983.879 227.446C984.348 227.56 984.81 227.617 985.266 227.617C985.988 227.617 986.533 227.484 986.9 227.218C987.267 226.952 987.451 226.591 987.451 226.135C987.451 225.781 987.331 225.502 987.09 225.299C986.849 225.084 986.469 224.919 985.95 224.805L984.221 224.425C983.423 224.261 982.828 223.976 982.435 223.57C982.055 223.165 981.865 222.639 981.865 221.993C981.865 221.423 982.011 220.936 982.302 220.53C982.606 220.112 983.03 219.789 983.575 219.561C984.12 219.333 984.753 219.219 985.475 219.219C986.032 219.219 986.558 219.295 987.052 219.447C987.559 219.587 988.015 219.815 988.42 220.131C988.547 220.22 988.629 220.328 988.667 220.454C988.718 220.568 988.724 220.689 988.686 220.815C988.661 220.929 988.604 221.031 988.515 221.119C988.426 221.195 988.319 221.24 988.192 221.252C988.065 221.265 987.932 221.227 987.793 221.138C987.413 220.885 987.027 220.701 986.634 220.587C986.241 220.461 985.855 220.397 985.475 220.397C984.766 220.397 984.227 220.537 983.86 220.815C983.493 221.094 983.309 221.461 983.309 221.917C983.309 222.272 983.423 222.563 983.651 222.791C983.879 223.019 984.234 223.184 984.715 223.285L986.444 223.646C987.267 223.824 987.882 224.109 988.287 224.501C988.705 224.881 988.914 225.401 988.914 226.059C988.914 226.895 988.578 227.56 987.907 228.054C987.236 228.548 986.343 228.795 985.228 228.795ZM994.527 228.795C993.78 228.795 993.159 228.662 992.665 228.396C992.184 228.118 991.817 227.706 991.563 227.161C991.323 226.617 991.202 225.939 991.202 225.128V220.036C991.202 219.77 991.266 219.574 991.392 219.447C991.532 219.321 991.722 219.257 991.962 219.257C992.216 219.257 992.406 219.321 992.532 219.447C992.672 219.574 992.741 219.77 992.741 220.036V225.109C992.741 225.92 992.906 226.528 993.235 226.933C993.577 227.326 994.109 227.522 994.831 227.522C995.617 227.522 996.256 227.256 996.75 226.724C997.244 226.192 997.491 225.496 997.491 224.634V220.036C997.491 219.77 997.555 219.574 997.681 219.447C997.821 219.321 998.017 219.257 998.27 219.257C998.511 219.257 998.695 219.321 998.821 219.447C998.961 219.574 999.03 219.77 999.03 220.036V227.959C999.03 228.491 998.783 228.757 998.289 228.757C998.049 228.757 997.859 228.688 997.719 228.548C997.593 228.409 997.529 228.213 997.529 227.959V226.23L997.776 226.496C997.523 227.244 997.105 227.814 996.522 228.206C995.952 228.599 995.287 228.795 994.527 228.795ZM1002.71 228.757C1002.45 228.757 1002.26 228.688 1002.14 228.548C1002.01 228.409 1001.95 228.213 1001.95 227.959V220.036C1001.95 219.783 1002.01 219.593 1002.14 219.466C1002.26 219.327 1002.45 219.257 1002.69 219.257C1002.93 219.257 1003.11 219.327 1003.24 219.466C1003.38 219.593 1003.45 219.783 1003.45 220.036V221.708L1003.24 221.442C1003.48 220.733 1003.87 220.188 1004.4 219.808C1004.94 219.416 1005.59 219.219 1006.34 219.219C1007.12 219.219 1007.76 219.409 1008.24 219.789C1008.73 220.157 1009.06 220.733 1009.22 221.518H1008.94C1009.17 220.809 1009.57 220.252 1010.16 219.846C1010.75 219.428 1011.44 219.219 1012.23 219.219C1012.92 219.219 1013.49 219.352 1013.94 219.618C1014.39 219.884 1014.73 220.29 1014.96 220.834C1015.19 221.366 1015.3 222.044 1015.3 222.867V227.959C1015.3 228.213 1015.24 228.409 1015.1 228.548C1014.97 228.688 1014.78 228.757 1014.53 228.757C1014.29 228.757 1014.1 228.688 1013.96 228.548C1013.83 228.409 1013.77 228.213 1013.77 227.959V222.943C1013.77 222.095 1013.62 221.474 1013.33 221.081C1013.04 220.676 1012.54 220.473 1011.85 220.473C1011.09 220.473 1010.49 220.739 1010.04 221.271C1009.61 221.791 1009.4 222.5 1009.4 223.399V227.959C1009.4 228.213 1009.33 228.409 1009.19 228.548C1009.06 228.688 1008.87 228.757 1008.62 228.757C1008.38 228.757 1008.19 228.688 1008.05 228.548C1007.92 228.409 1007.86 228.213 1007.86 227.959V222.943C1007.86 222.095 1007.7 221.474 1007.4 221.081C1007.11 220.676 1006.62 220.473 1005.94 220.473C1005.18 220.473 1004.58 220.739 1004.13 221.271C1003.7 221.791 1003.49 222.5 1003.49 223.399V227.959C1003.49 228.491 1003.23 228.757 1002.71 228.757ZM1022.34 228.795C1021.37 228.795 1020.53 228.605 1019.82 228.225C1019.12 227.833 1018.57 227.282 1018.18 226.572C1017.8 225.863 1017.61 225.014 1017.61 224.026C1017.61 223.064 1017.8 222.228 1018.18 221.518C1018.56 220.796 1019.08 220.233 1019.74 219.827C1020.41 219.422 1021.18 219.219 1022.06 219.219C1022.68 219.219 1023.24 219.327 1023.73 219.542C1024.22 219.745 1024.64 220.043 1024.98 220.435C1025.34 220.828 1025.6 221.303 1025.78 221.86C1025.97 222.418 1026.07 223.045 1026.07 223.741C1026.07 223.944 1026.01 224.096 1025.9 224.197C1025.78 224.286 1025.62 224.33 1025.4 224.33H1018.79V223.323H1025.04L1024.74 223.57C1024.74 222.886 1024.64 222.31 1024.43 221.841C1024.23 221.36 1023.93 220.993 1023.54 220.739C1023.16 220.486 1022.68 220.359 1022.1 220.359C1021.45 220.359 1020.9 220.511 1020.44 220.815C1020 221.107 1019.66 221.518 1019.44 222.05C1019.21 222.57 1019.09 223.178 1019.09 223.874V223.988C1019.09 225.154 1019.37 226.04 1019.93 226.648C1020.5 227.256 1021.3 227.56 1022.34 227.56C1022.77 227.56 1023.2 227.503 1023.62 227.389C1024.05 227.275 1024.46 227.085 1024.87 226.819C1025.05 226.705 1025.21 226.655 1025.35 226.667C1025.5 226.667 1025.62 226.712 1025.71 226.8C1025.79 226.876 1025.85 226.978 1025.88 227.104C1025.92 227.218 1025.9 227.345 1025.84 227.484C1025.79 227.624 1025.68 227.744 1025.52 227.845C1025.1 228.149 1024.6 228.384 1024.03 228.548C1023.46 228.713 1022.9 228.795 1022.34 228.795ZM1029.07 228.757C1028.82 228.757 1028.62 228.688 1028.48 228.548C1028.36 228.409 1028.29 228.213 1028.29 227.959V220.036C1028.29 219.783 1028.36 219.593 1028.48 219.466C1028.61 219.327 1028.79 219.257 1029.04 219.257C1029.28 219.257 1029.46 219.327 1029.59 219.466C1029.73 219.593 1029.8 219.783 1029.8 220.036V221.575H1029.61C1029.81 220.828 1030.19 220.252 1030.76 219.846C1031.33 219.441 1032.04 219.226 1032.87 219.2C1033.06 219.188 1033.22 219.232 1033.33 219.333C1033.44 219.422 1033.51 219.58 1033.52 219.808C1033.53 220.024 1033.48 220.195 1033.37 220.321C1033.25 220.448 1033.08 220.524 1032.84 220.549L1032.53 220.587C1031.67 220.663 1031.01 220.942 1030.54 221.423C1030.08 221.892 1029.85 222.538 1029.85 223.361V227.959C1029.85 228.213 1029.78 228.409 1029.64 228.548C1029.52 228.688 1029.33 228.757 1029.07 228.757Z" fill="#666E77"/>
<path d="M945.622 185.042C943.395 185.042 941.411 184.659 939.671 183.894C937.941 183.118 936.574 182.054 935.569 180.702C934.575 179.34 934.063 177.769 934.033 175.989H940.536C940.576 176.735 940.819 177.391 941.267 177.958C941.724 178.514 942.331 178.947 943.086 179.255C943.842 179.563 944.692 179.718 945.637 179.718C946.621 179.718 947.491 179.544 948.247 179.196C949.002 178.848 949.594 178.365 950.022 177.749C950.449 177.132 950.663 176.421 950.663 175.616C950.663 174.801 950.434 174.08 949.977 173.453C949.529 172.817 948.883 172.32 948.038 171.962C947.203 171.604 946.208 171.425 945.055 171.425H942.206V166.682H945.055C946.029 166.682 946.89 166.513 947.635 166.175C948.391 165.837 948.978 165.37 949.395 164.773C949.813 164.166 950.022 163.46 950.022 162.655C950.022 161.889 949.838 161.218 949.47 160.642C949.112 160.055 948.605 159.598 947.949 159.269C947.302 158.941 946.547 158.777 945.681 158.777C944.806 158.777 944.006 158.936 943.28 159.254C942.554 159.563 941.973 160.005 941.535 160.582C941.098 161.159 940.864 161.835 940.834 162.61H934.645C934.674 160.85 935.176 159.299 936.151 157.957C937.125 156.615 938.438 155.566 940.088 154.81C941.749 154.044 943.623 153.661 945.711 153.661C947.819 153.661 949.664 154.044 951.245 154.81C952.826 155.576 954.054 156.61 954.929 157.912C955.814 159.205 956.251 160.656 956.241 162.267C956.251 163.977 955.719 165.404 954.645 166.548C953.581 167.691 952.194 168.417 950.484 168.725V168.964C952.731 169.252 954.441 170.033 955.615 171.306C956.798 172.568 957.385 174.149 957.375 176.049C957.385 177.789 956.882 179.335 955.868 180.687C954.864 182.039 953.477 183.103 951.707 183.879C949.937 184.654 947.909 185.042 945.622 185.042ZM961.555 179.255V174.169L974.307 154.079H978.692V161.119H976.096L968.057 173.841V174.08H986.179V179.255H961.555ZM976.216 184.625V177.704L976.335 175.452V154.079H982.39V184.625H976.216ZM1002.46 185.296C999.893 185.286 997.686 184.654 995.836 183.402C993.997 182.149 992.58 180.334 991.585 177.958C990.601 175.581 990.114 172.723 990.124 169.382C990.124 166.051 990.616 163.212 991.6 160.865C992.595 158.519 994.012 156.734 995.851 155.511C997.7 154.278 999.903 153.661 1002.46 153.661C1005.01 153.661 1007.21 154.278 1009.05 155.511C1010.9 156.744 1012.32 158.534 1013.32 160.88C1014.31 163.217 1014.8 166.051 1014.79 169.382C1014.79 172.732 1014.3 175.596 1013.3 177.973C1012.32 180.349 1010.91 182.164 1009.07 183.416C1007.23 184.669 1005.02 185.296 1002.46 185.296ZM1002.46 179.941C1004.21 179.941 1005.61 179.061 1006.65 177.301C1007.69 175.541 1008.21 172.901 1008.2 169.382C1008.2 167.065 1007.96 165.136 1007.48 163.595C1007.02 162.053 1006.35 160.895 1005.49 160.12C1004.63 159.344 1003.62 158.956 1002.46 158.956C1000.72 158.956 999.326 159.826 998.282 161.566C997.238 163.306 996.711 165.911 996.701 169.382C996.701 171.728 996.935 173.687 997.402 175.258C997.879 176.819 998.551 177.992 999.416 178.778C1000.28 179.553 1001.29 179.941 1002.46 179.941Z" fill="#223645"/>
<path d="M1000.8 91.1669C999.574 90.1526 998.013 89.6408 996.429 89.7353C994.844 89.8298 993.355 90.5236 992.263 91.6759L986.19 98.1159C985.788 96.8624 984.998 95.7692 983.934 94.9947C982.87 94.2202 981.586 93.8045 980.27 93.8079H969.431C968.609 93.8079 968.331 93.4979 966.905 92.4079C964.247 90.1369 960.864 88.8929 957.368 88.9012C953.872 88.9094 950.494 90.1694 947.847 92.4529L943.863 95.9169C942.989 95.4562 942.019 95.2095 941.031 95.1972C940.043 95.1848 939.066 95.4072 938.181 95.8459L933.612 98.1019C933.37 98.2196 933.153 98.3844 932.975 98.5866C932.797 98.7888 932.661 99.0244 932.575 99.2797C932.489 99.5349 932.455 99.8048 932.474 100.074C932.493 100.342 932.566 100.604 932.687 100.845L945.087 125.338C945.337 125.824 945.768 126.192 946.287 126.363C946.805 126.533 947.371 126.493 947.86 126.251L952.429 123.994C953.488 123.477 954.375 122.664 954.983 121.654C955.59 120.644 955.892 119.48 955.853 118.302H980.269C982.507 118.3 984.714 117.784 986.721 116.793C988.727 115.802 990.479 114.363 991.84 112.587L1001.76 99.5209C1002.71 98.2747 1003.14 96.7075 1002.96 95.1492C1002.78 93.5909 1002.01 92.1633 1000.8 91.1669ZM950.578 120.345L947.857 121.689L937.307 100.845L940.029 99.5009C940.518 99.2579 941.084 99.2176 941.603 99.3885C942.121 99.5593 942.552 99.9277 942.801 100.414L951.501 117.606C951.622 117.846 951.694 118.108 951.714 118.376C951.733 118.644 951.698 118.914 951.612 119.168C951.527 119.423 951.391 119.658 951.213 119.86C951.036 120.062 950.82 120.227 950.578 120.345ZM998.453 97.0739L988.534 110.14C987.562 111.408 986.311 112.436 984.877 113.144C983.444 113.852 981.868 114.221 980.269 114.222H954.409L946.666 98.9219L950.577 95.5219C952.475 93.8858 954.897 92.9858 957.403 92.9858C959.908 92.9858 962.33 93.8858 964.228 95.5219C966.52 97.5149 967.946 97.8919 969.428 97.8919H980.269C980.81 97.8919 981.33 98.1069 981.712 98.4897C982.095 98.8724 982.31 99.3916 982.31 99.9329C982.31 100.474 982.095 100.993 981.712 101.376C981.33 101.759 980.81 101.974 980.269 101.974H969.716C969.448 101.974 969.183 102.027 968.935 102.129C968.687 102.232 968.462 102.382 968.273 102.572C968.083 102.761 967.933 102.986 967.831 103.234C967.728 103.481 967.675 103.747 967.675 104.015C967.675 104.283 967.728 104.548 967.831 104.796C967.933 105.044 968.083 105.269 968.273 105.458C968.462 105.648 968.687 105.798 968.935 105.901C969.183 106.003 969.448 106.056 969.716 106.056H981.653C982.502 106.056 983.342 105.883 984.122 105.548C984.902 105.212 985.605 104.722 986.189 104.106L995.289 94.4599C995.66 94.0682 996.169 93.8357 996.708 93.8111C997.246 93.7865 997.774 93.9717 998.179 94.3279C998.564 94.6652 998.806 95.1361 998.857 95.6453C998.908 96.1545 998.764 96.6641 998.453 97.0709V97.0739Z" fill="#80B500"/>
<path d="M975.915 70.7244C977.381 69.2173 978.201 67.1985 978.202 65.0964C978.196 62.9031 977.324 60.8011 975.776 59.247C974.229 57.6928 972.13 56.8122 969.937 56.7964C967.732 56.8124 965.619 57.6889 964.05 59.2392C962.481 60.7895 961.58 62.8911 961.537 65.0964C961.539 66.1464 961.749 67.1857 962.155 68.1543C962.56 69.1229 963.153 70.0018 963.899 70.7404C961.949 71.8001 960.319 73.3625 959.176 75.2653C958.034 77.1682 957.422 79.3421 957.404 81.5614V83.6024C957.408 84.1469 957.628 84.6677 958.015 85.0503C958.402 85.433 958.926 85.6463 959.47 85.6434H980.27C980.815 85.6463 981.338 85.433 981.726 85.0503C982.113 84.6677 982.333 84.1469 982.336 83.6024V81.5614C982.33 79.3466 981.731 77.1738 980.602 75.2683C979.473 73.3628 977.855 71.794 975.915 70.7244ZM969.936 60.8824C971.039 60.9084 972.088 61.3639 972.859 62.1517C973.631 62.9395 974.065 63.9975 974.068 65.1004C974.06 66.1891 973.621 67.2302 972.846 67.9954C972.071 68.7606 971.025 69.1874 969.936 69.1824C968.833 69.192 967.77 68.7708 966.972 68.0085C966.175 67.2462 965.706 66.2028 965.666 65.1004C965.701 63.9839 966.164 62.9236 966.959 62.1386C967.754 61.3536 968.819 60.9039 969.936 60.8824ZM961.536 81.5654C961.579 79.3601 962.48 77.2585 964.049 75.7082C965.618 74.1579 967.731 73.2814 969.936 73.2654C972.132 73.2725 974.236 74.1504 975.785 75.7064C977.334 77.2624 978.203 79.3695 978.201 81.5654H961.536Z" fill="#80B500"/>
<path d="M607.915 228.796C606.597 228.796 605.47 228.518 604.533 227.96C603.595 227.403 602.873 226.611 602.367 225.585C601.873 224.559 601.626 223.337 601.626 221.918C601.626 220.854 601.765 219.904 602.044 219.068C602.335 218.22 602.747 217.504 603.279 216.921C603.823 216.326 604.488 215.87 605.274 215.553C606.059 215.224 606.939 215.059 607.915 215.059C608.7 215.059 609.447 215.173 610.157 215.401C610.866 215.617 611.48 215.94 612 216.37C612.164 216.497 612.272 216.643 612.323 216.807C612.386 216.959 612.392 217.111 612.342 217.263C612.304 217.403 612.228 217.523 612.114 217.624C612.012 217.713 611.886 217.757 611.734 217.757C611.582 217.757 611.411 217.694 611.221 217.567C610.765 217.2 610.264 216.928 609.72 216.75C609.175 216.573 608.586 216.484 607.953 216.484C606.952 216.484 606.103 216.7 605.407 217.13C604.71 217.548 604.184 218.163 603.83 218.973C603.475 219.784 603.298 220.766 603.298 221.918C603.298 223.071 603.475 224.059 603.83 224.882C604.184 225.693 604.71 226.314 605.407 226.744C606.103 227.162 606.952 227.371 607.953 227.371C608.573 227.371 609.162 227.283 609.72 227.105C610.277 226.915 610.79 226.637 611.259 226.269C611.449 226.143 611.62 226.086 611.772 226.098C611.924 226.098 612.05 226.143 612.152 226.231C612.253 226.32 612.323 226.434 612.361 226.573C612.411 226.713 612.411 226.858 612.361 227.01C612.323 227.162 612.228 227.295 612.076 227.409C611.544 227.865 610.917 228.214 610.195 228.454C609.485 228.682 608.725 228.796 607.915 228.796ZM617.759 228.796C617.012 228.796 616.391 228.663 615.897 228.397C615.416 228.119 615.048 227.707 614.795 227.162C614.554 226.618 614.434 225.94 614.434 225.129V220.037C614.434 219.771 614.497 219.575 614.624 219.448C614.763 219.322 614.953 219.258 615.194 219.258C615.447 219.258 615.637 219.322 615.764 219.448C615.903 219.575 615.973 219.771 615.973 220.037V225.11C615.973 225.921 616.138 226.529 616.467 226.934C616.809 227.327 617.341 227.523 618.063 227.523C618.848 227.523 619.488 227.257 619.982 226.725C620.476 226.193 620.723 225.497 620.723 224.635V220.037C620.723 219.771 620.786 219.575 620.913 219.448C621.052 219.322 621.249 219.258 621.502 219.258C621.743 219.258 621.926 219.322 622.053 219.448C622.192 219.575 622.262 219.771 622.262 220.037V227.96C622.262 228.492 622.015 228.758 621.521 228.758C621.28 228.758 621.09 228.689 620.951 228.549C620.824 228.41 620.761 228.214 620.761 227.96V226.231L621.008 226.497C620.755 227.245 620.337 227.815 619.754 228.207C619.184 228.6 618.519 228.796 617.759 228.796ZM627.953 228.796C627.041 228.796 626.345 228.518 625.863 227.96C625.382 227.403 625.141 226.605 625.141 225.566V215.876C625.141 215.623 625.205 215.433 625.331 215.306C625.458 215.167 625.648 215.097 625.901 215.097C626.142 215.097 626.332 215.167 626.471 215.306C626.611 215.433 626.68 215.623 626.68 215.876V225.452C626.68 226.136 626.813 226.649 627.079 226.991C627.358 227.321 627.763 227.485 628.295 227.485C628.409 227.485 628.511 227.479 628.599 227.466C628.688 227.454 628.777 227.447 628.865 227.447C629.005 227.435 629.1 227.466 629.15 227.542C629.214 227.618 629.245 227.77 629.245 227.998C629.245 228.226 629.195 228.397 629.093 228.511C628.992 228.625 628.827 228.701 628.599 228.739C628.498 228.752 628.39 228.765 628.276 228.777C628.162 228.79 628.055 228.796 627.953 228.796ZM634.301 228.796C633.579 228.796 632.971 228.67 632.477 228.416C631.996 228.15 631.635 227.77 631.394 227.276C631.154 226.77 631.033 226.155 631.033 225.433V220.588H629.76C629.545 220.588 629.38 220.538 629.266 220.436C629.152 220.322 629.095 220.17 629.095 219.98C629.095 219.79 629.152 219.645 629.266 219.543C629.38 219.442 629.545 219.391 629.76 219.391H631.033V217.206C631.033 216.953 631.103 216.763 631.242 216.636C631.382 216.497 631.572 216.427 631.812 216.427C632.053 216.427 632.237 216.497 632.363 216.636C632.503 216.763 632.572 216.953 632.572 217.206V219.391H634.966C635.182 219.391 635.346 219.442 635.46 219.543C635.574 219.645 635.631 219.79 635.631 219.98C635.631 220.17 635.574 220.322 635.46 220.436C635.346 220.538 635.182 220.588 634.966 220.588H632.572V225.281C632.572 226.003 632.724 226.554 633.028 226.934C633.332 227.302 633.826 227.485 634.51 227.485C634.751 227.485 634.954 227.46 635.118 227.409C635.296 227.359 635.441 227.333 635.555 227.333C635.669 227.321 635.764 227.359 635.84 227.447C635.916 227.536 635.954 227.688 635.954 227.903C635.954 228.055 635.923 228.195 635.859 228.321C635.809 228.448 635.714 228.537 635.574 228.587C635.422 228.638 635.22 228.682 634.966 228.72C634.726 228.771 634.504 228.796 634.301 228.796ZM638.11 228.72C637.857 228.72 637.667 228.651 637.54 228.511C637.414 228.359 637.35 228.15 637.35 227.884V220.113C637.35 219.847 637.414 219.645 637.54 219.505C637.667 219.366 637.857 219.296 638.11 219.296C638.351 219.296 638.541 219.366 638.68 219.505C638.82 219.645 638.889 219.847 638.889 220.113V227.884C638.889 228.15 638.82 228.359 638.68 228.511C638.554 228.651 638.364 228.72 638.11 228.72ZM638.11 217.168C637.794 217.168 637.547 217.086 637.369 216.921C637.192 216.744 637.103 216.51 637.103 216.218C637.103 215.914 637.192 215.686 637.369 215.534C637.547 215.37 637.794 215.287 638.11 215.287C638.44 215.287 638.687 215.37 638.851 215.534C639.029 215.686 639.117 215.914 639.117 216.218C639.117 216.51 639.029 216.744 638.851 216.921C638.687 217.086 638.44 217.168 638.11 217.168ZM645.205 228.758C644.99 228.758 644.8 228.701 644.635 228.587C644.471 228.461 644.331 228.271 644.217 228.017L640.93 220.341C640.842 220.151 640.81 219.974 640.835 219.809C640.861 219.645 640.937 219.512 641.063 219.41C641.19 219.309 641.367 219.258 641.595 219.258C641.798 219.258 641.956 219.303 642.07 219.391C642.184 219.48 642.286 219.638 642.374 219.866L645.49 227.485H644.977L648.15 219.866C648.239 219.638 648.34 219.48 648.454 219.391C648.568 219.303 648.733 219.258 648.948 219.258C649.151 219.258 649.303 219.309 649.404 219.41C649.518 219.512 649.582 219.645 649.594 219.809C649.62 219.961 649.594 220.132 649.518 220.322L646.193 228.017C646.105 228.271 645.972 228.461 645.794 228.587C645.63 228.701 645.433 228.758 645.205 228.758ZM654.266 228.796C653.633 228.796 653.063 228.676 652.556 228.435C652.062 228.182 651.669 227.84 651.378 227.409C651.087 226.979 650.941 226.497 650.941 225.965C650.941 225.281 651.112 224.743 651.454 224.35C651.809 223.958 652.385 223.679 653.183 223.514C653.994 223.35 655.096 223.267 656.489 223.267H657.344V224.274H656.508C655.482 224.274 654.671 224.325 654.076 224.426C653.493 224.515 653.082 224.673 652.841 224.901C652.613 225.129 652.499 225.452 652.499 225.87C652.499 226.39 652.676 226.814 653.031 227.143C653.398 227.473 653.892 227.637 654.513 227.637C655.02 227.637 655.463 227.517 655.843 227.276C656.236 227.036 656.54 226.706 656.755 226.288C656.983 225.87 657.097 225.389 657.097 224.844V222.678C657.097 221.893 656.939 221.329 656.622 220.987C656.305 220.633 655.786 220.455 655.064 220.455C654.621 220.455 654.177 220.512 653.734 220.626C653.291 220.74 652.822 220.924 652.328 221.177C652.151 221.266 651.999 221.298 651.872 221.272C651.745 221.234 651.644 221.165 651.568 221.063C651.492 220.962 651.448 220.848 651.435 220.721C651.422 220.582 651.448 220.449 651.511 220.322C651.587 220.196 651.701 220.094 651.853 220.018C652.41 219.74 652.961 219.537 653.506 219.41C654.051 219.284 654.57 219.22 655.064 219.22C655.862 219.22 656.521 219.353 657.04 219.619C657.559 219.873 657.946 220.265 658.199 220.797C658.452 221.317 658.579 221.988 658.579 222.811V227.96C658.579 228.214 658.516 228.41 658.389 228.549C658.275 228.689 658.104 228.758 657.876 228.758C657.635 228.758 657.452 228.689 657.325 228.549C657.198 228.41 657.135 228.214 657.135 227.96V226.478H657.306C657.205 226.96 657.008 227.371 656.717 227.713C656.438 228.055 656.09 228.321 655.672 228.511C655.254 228.701 654.785 228.796 654.266 228.796ZM665.139 228.796C664.417 228.796 663.809 228.67 663.315 228.416C662.834 228.15 662.473 227.77 662.232 227.276C661.992 226.77 661.871 226.155 661.871 225.433V220.588H660.598C660.383 220.588 660.218 220.538 660.104 220.436C659.99 220.322 659.933 220.17 659.933 219.98C659.933 219.79 659.99 219.645 660.104 219.543C660.218 219.442 660.383 219.391 660.598 219.391H661.871V217.206C661.871 216.953 661.941 216.763 662.08 216.636C662.22 216.497 662.41 216.427 662.65 216.427C662.891 216.427 663.075 216.497 663.201 216.636C663.341 216.763 663.41 216.953 663.41 217.206V219.391H665.804C666.02 219.391 666.184 219.442 666.298 219.543C666.412 219.645 666.469 219.79 666.469 219.98C666.469 220.17 666.412 220.322 666.298 220.436C666.184 220.538 666.02 220.588 665.804 220.588H663.41V225.281C663.41 226.003 663.562 226.554 663.866 226.934C664.17 227.302 664.664 227.485 665.348 227.485C665.589 227.485 665.792 227.46 665.956 227.409C666.134 227.359 666.279 227.333 666.393 227.333C666.507 227.321 666.602 227.359 666.678 227.447C666.754 227.536 666.792 227.688 666.792 227.903C666.792 228.055 666.761 228.195 666.697 228.321C666.647 228.448 666.552 228.537 666.412 228.587C666.26 228.638 666.058 228.682 665.804 228.72C665.564 228.771 665.342 228.796 665.139 228.796ZM671.822 228.796C670.923 228.796 670.144 228.6 669.485 228.207C668.826 227.815 668.313 227.264 667.946 226.554C667.591 225.832 667.414 224.984 667.414 224.008C667.414 223.274 667.515 222.615 667.718 222.032C667.921 221.437 668.218 220.93 668.611 220.512C669.004 220.094 669.466 219.778 669.998 219.562C670.543 219.334 671.151 219.22 671.822 219.22C672.721 219.22 673.5 219.417 674.159 219.809C674.818 220.202 675.324 220.759 675.679 221.481C676.046 222.191 676.23 223.033 676.23 224.008C676.23 224.743 676.129 225.402 675.926 225.984C675.723 226.567 675.426 227.074 675.033 227.504C674.64 227.922 674.172 228.245 673.627 228.473C673.095 228.689 672.493 228.796 671.822 228.796ZM671.822 227.561C672.392 227.561 672.892 227.422 673.323 227.143C673.754 226.865 674.083 226.459 674.311 225.927C674.552 225.395 674.672 224.756 674.672 224.008C674.672 222.856 674.412 221.975 673.893 221.367C673.386 220.759 672.696 220.455 671.822 220.455C671.239 220.455 670.733 220.595 670.302 220.873C669.884 221.139 669.555 221.538 669.314 222.07C669.086 222.59 668.972 223.236 668.972 224.008C668.972 225.148 669.232 226.029 669.751 226.649C670.27 227.257 670.961 227.561 671.822 227.561ZM679.321 228.758C679.067 228.758 678.871 228.689 678.732 228.549C678.605 228.41 678.542 228.214 678.542 227.96V220.037C678.542 219.784 678.605 219.594 678.732 219.467C678.858 219.328 679.042 219.258 679.283 219.258C679.523 219.258 679.707 219.328 679.834 219.467C679.973 219.594 680.043 219.784 680.043 220.037V221.576H679.853C680.055 220.829 680.442 220.253 681.012 219.847C681.582 219.442 682.285 219.227 683.121 219.201C683.311 219.189 683.463 219.233 683.577 219.334C683.691 219.423 683.754 219.581 683.767 219.809C683.779 220.025 683.729 220.196 683.615 220.322C683.501 220.449 683.323 220.525 683.083 220.55L682.779 220.588C681.917 220.664 681.252 220.943 680.784 221.424C680.328 221.893 680.1 222.539 680.1 223.362V227.96C680.1 228.214 680.03 228.41 679.891 228.549C679.764 228.689 679.574 228.758 679.321 228.758ZM691.257 228.625C691.003 228.625 690.807 228.556 690.668 228.416C690.528 228.264 690.459 228.062 690.459 227.808V215.952C690.459 215.686 690.522 215.484 690.649 215.344C690.788 215.205 690.984 215.135 691.238 215.135C691.491 215.135 691.681 215.205 691.808 215.344C691.947 215.484 692.017 215.686 692.017 215.952V227.257H698.249C698.477 227.257 698.654 227.321 698.781 227.447C698.907 227.561 698.971 227.726 698.971 227.941C698.971 228.157 698.907 228.328 698.781 228.454C698.654 228.568 698.477 228.625 698.249 228.625H691.257ZM703.473 228.796C702.84 228.796 702.27 228.676 701.763 228.435C701.269 228.182 700.876 227.84 700.585 227.409C700.294 226.979 700.148 226.497 700.148 225.965C700.148 225.281 700.319 224.743 700.661 224.35C701.016 223.958 701.592 223.679 702.39 223.514C703.201 223.35 704.303 223.267 705.696 223.267H706.551V224.274H705.715C704.689 224.274 703.878 224.325 703.283 224.426C702.7 224.515 702.289 224.673 702.048 224.901C701.82 225.129 701.706 225.452 701.706 225.87C701.706 226.39 701.883 226.814 702.238 227.143C702.605 227.473 703.099 227.637 703.72 227.637C704.227 227.637 704.67 227.517 705.05 227.276C705.443 227.036 705.747 226.706 705.962 226.288C706.19 225.87 706.304 225.389 706.304 224.844V222.678C706.304 221.893 706.146 221.329 705.829 220.987C705.512 220.633 704.993 220.455 704.271 220.455C703.828 220.455 703.384 220.512 702.941 220.626C702.498 220.74 702.029 220.924 701.535 221.177C701.358 221.266 701.206 221.298 701.079 221.272C700.952 221.234 700.851 221.165 700.775 221.063C700.699 220.962 700.655 220.848 700.642 220.721C700.629 220.582 700.655 220.449 700.718 220.322C700.794 220.196 700.908 220.094 701.06 220.018C701.617 219.74 702.168 219.537 702.713 219.41C703.258 219.284 703.777 219.22 704.271 219.22C705.069 219.22 705.728 219.353 706.247 219.619C706.766 219.873 707.153 220.265 707.406 220.797C707.659 221.317 707.786 221.988 707.786 222.811V227.96C707.786 228.214 707.723 228.41 707.596 228.549C707.482 228.689 707.311 228.758 707.083 228.758C706.842 228.758 706.659 228.689 706.532 228.549C706.405 228.41 706.342 228.214 706.342 227.96V226.478H706.513C706.412 226.96 706.215 227.371 705.924 227.713C705.645 228.055 705.297 228.321 704.879 228.511C704.461 228.701 703.992 228.796 703.473 228.796ZM711.401 228.758C711.148 228.758 710.958 228.689 710.831 228.549C710.705 228.41 710.641 228.214 710.641 227.96V220.037C710.641 219.784 710.705 219.594 710.831 219.467C710.958 219.328 711.142 219.258 711.382 219.258C711.623 219.258 711.807 219.328 711.933 219.467C712.073 219.594 712.142 219.784 712.142 220.037V221.671L711.933 221.443C712.199 220.709 712.63 220.158 713.225 219.79C713.833 219.41 714.53 219.22 715.315 219.22C716.05 219.22 716.658 219.353 717.139 219.619C717.633 219.885 718.001 220.291 718.241 220.835C718.482 221.367 718.602 222.045 718.602 222.868V227.96C718.602 228.214 718.533 228.41 718.393 228.549C718.267 228.689 718.083 228.758 717.842 228.758C717.589 228.758 717.393 228.689 717.253 228.549C717.127 228.41 717.063 228.214 717.063 227.96V222.963C717.063 222.102 716.892 221.475 716.55 221.082C716.221 220.677 715.689 220.474 714.954 220.474C714.106 220.474 713.428 220.74 712.921 221.272C712.427 221.792 712.18 222.488 712.18 223.362V227.96C712.18 228.492 711.921 228.758 711.401 228.758ZM724.955 228.796C724.132 228.796 723.41 228.6 722.789 228.207C722.181 227.815 721.706 227.264 721.364 226.554C721.035 225.832 720.87 224.984 720.87 224.008C720.87 223.02 721.035 222.172 721.364 221.462C721.706 220.74 722.181 220.189 722.789 219.809C723.41 219.417 724.132 219.22 724.955 219.22C725.791 219.22 726.507 219.429 727.102 219.847C727.697 220.265 728.096 220.829 728.299 221.538H728.09V215.876C728.09 215.623 728.153 215.433 728.28 215.306C728.419 215.167 728.616 215.097 728.869 215.097C729.11 215.097 729.293 215.167 729.42 215.306C729.559 215.433 729.629 215.623 729.629 215.876V227.96C729.629 228.214 729.566 228.41 729.439 228.549C729.312 228.689 729.122 228.758 728.869 228.758C728.628 228.758 728.438 228.689 728.299 228.549C728.172 228.41 728.109 228.214 728.109 227.96V226.155L728.318 226.421C728.115 227.143 727.71 227.72 727.102 228.15C726.507 228.581 725.791 228.796 724.955 228.796ZM725.278 227.561C725.848 227.561 726.348 227.422 726.779 227.143C727.21 226.865 727.539 226.459 727.767 225.927C728.008 225.395 728.128 224.756 728.128 224.008C728.128 222.856 727.868 221.975 727.349 221.367C726.842 220.759 726.152 220.455 725.278 220.455C724.695 220.455 724.189 220.595 723.758 220.873C723.34 221.139 723.011 221.538 722.77 222.07C722.542 222.59 722.428 223.236 722.428 224.008C722.428 225.148 722.688 226.029 723.207 226.649C723.726 227.257 724.417 227.561 725.278 227.561Z" fill="#666E77"/>
<path d="M631.331 188.625V183.972L642.204 173.905C643.129 173.01 643.904 172.204 644.531 171.488C645.167 170.773 645.65 170.072 645.978 169.385C646.306 168.689 646.47 167.939 646.47 167.133C646.47 166.238 646.266 165.468 645.858 164.822C645.451 164.165 644.894 163.663 644.188 163.315C643.482 162.957 642.681 162.778 641.787 162.778C640.852 162.778 640.037 162.967 639.341 163.345C638.645 163.723 638.108 164.265 637.73 164.971C637.352 165.677 637.163 166.517 637.163 167.491H631.033C631.033 165.493 631.485 163.758 632.39 162.286C633.295 160.814 634.563 159.676 636.194 158.871C637.824 158.065 639.703 157.662 641.831 157.662C644.019 157.662 645.923 158.05 647.544 158.826C649.174 159.591 650.442 160.655 651.347 162.018C652.252 163.38 652.704 164.941 652.704 166.701C652.704 167.854 652.475 168.993 652.018 170.116C651.571 171.24 650.77 172.488 649.617 173.86C648.463 175.222 646.838 176.858 644.74 178.767L640.28 183.137V183.346H653.107V188.625H631.331ZM669.509 189.043C667.938 189.033 666.422 188.77 664.96 188.253C663.509 187.736 662.206 186.895 661.053 185.732C659.899 184.569 658.985 183.027 658.308 181.108C657.642 179.189 657.309 176.833 657.309 174.039C657.319 171.473 657.612 169.182 658.189 167.163C658.776 165.135 659.611 163.415 660.695 162.003C661.789 160.591 663.096 159.517 664.617 158.781C666.139 158.035 667.844 157.662 669.733 157.662C671.771 157.662 673.571 158.06 675.132 158.856C676.693 159.641 677.946 160.71 678.891 162.062C679.845 163.415 680.422 164.931 680.621 166.611H674.252C674.004 165.547 673.482 164.712 672.686 164.106C671.891 163.499 670.906 163.196 669.733 163.196C667.744 163.196 666.233 164.061 665.199 165.791C664.175 167.521 663.653 169.873 663.633 172.846H663.842C664.299 171.941 664.916 171.17 665.691 170.534C666.477 169.888 667.367 169.395 668.361 169.057C669.365 168.709 670.424 168.535 671.538 168.535C673.347 168.535 674.958 168.963 676.37 169.818C677.782 170.663 678.896 171.826 679.711 173.308C680.526 174.79 680.934 176.485 680.934 178.394C680.934 180.462 680.452 182.302 679.487 183.912C678.533 185.523 677.195 186.786 675.475 187.701C673.765 188.606 671.776 189.053 669.509 189.043ZM669.48 183.972C670.474 183.972 671.364 183.733 672.149 183.256C672.935 182.779 673.551 182.133 673.999 181.317C674.446 180.502 674.67 179.587 674.67 178.573C674.67 177.559 674.446 176.649 673.999 175.844C673.561 175.038 672.955 174.397 672.179 173.92C671.404 173.442 670.519 173.204 669.524 173.204C668.779 173.204 668.088 173.343 667.451 173.621C666.825 173.9 666.273 174.287 665.796 174.785C665.328 175.282 664.96 175.858 664.692 176.515C664.423 177.161 664.289 177.852 664.289 178.588C664.289 179.572 664.513 180.472 664.96 181.287C665.418 182.103 666.034 182.754 666.81 183.241C667.595 183.728 668.485 183.972 669.48 183.972ZM696.908 189.043C694.611 189.043 692.568 188.67 690.778 187.924C688.998 187.169 687.601 186.14 686.587 184.837C685.573 183.535 685.066 182.058 685.066 180.407C685.066 179.135 685.354 177.966 685.931 176.902C686.517 175.829 687.313 174.939 688.317 174.233C689.321 173.517 690.445 173.059 691.688 172.861V172.652C690.057 172.324 688.735 171.533 687.72 170.28C686.706 169.018 686.199 167.551 686.199 165.88C686.199 164.299 686.661 162.893 687.586 161.66C688.511 160.417 689.779 159.442 691.389 158.736C693.01 158.02 694.85 157.662 696.908 157.662C698.966 157.662 700.801 158.02 702.411 158.736C704.032 159.452 705.305 160.432 706.23 161.674C707.154 162.907 707.622 164.309 707.632 165.88C707.622 167.561 707.105 169.027 706.08 170.28C705.056 171.533 703.744 172.324 702.143 172.652V172.861C703.366 173.059 704.475 173.517 705.469 174.233C706.473 174.939 707.269 175.829 707.855 176.902C708.452 177.966 708.755 179.135 708.765 180.407C708.755 182.058 708.243 183.535 707.229 184.837C706.215 186.14 704.813 187.169 703.023 187.924C701.243 188.67 699.205 189.043 696.908 189.043ZM696.908 184.3C697.932 184.3 698.827 184.116 699.593 183.748C700.358 183.371 700.955 182.853 701.382 182.197C701.82 181.531 702.039 180.765 702.039 179.9C702.039 179.015 701.815 178.235 701.367 177.559C700.92 176.873 700.313 176.336 699.548 175.948C698.782 175.55 697.902 175.351 696.908 175.351C695.923 175.351 695.044 175.55 694.268 175.948C693.492 176.336 692.881 176.873 692.433 177.559C691.996 178.235 691.777 179.015 691.777 179.9C691.777 180.765 691.991 181.531 692.419 182.197C692.846 182.853 693.448 183.371 694.223 183.748C694.999 184.116 695.894 184.3 696.908 184.3ZM696.908 170.653C697.763 170.653 698.524 170.479 699.19 170.131C699.856 169.783 700.378 169.301 700.756 168.684C701.134 168.068 701.323 167.357 701.323 166.552C701.323 165.756 701.134 165.06 700.756 164.464C700.378 163.857 699.861 163.385 699.205 163.047C698.548 162.699 697.783 162.525 696.908 162.525C696.043 162.525 695.277 162.699 694.611 163.047C693.945 163.385 693.423 163.857 693.045 164.464C692.677 165.06 692.493 165.756 692.493 166.552C692.493 167.357 692.682 168.068 693.06 168.684C693.438 169.301 693.96 169.783 694.626 170.131C695.292 170.479 696.053 170.653 696.908 170.653Z" fill="#223645"/>
<path d="M690.615 101.165C682.993 98.3229 674.947 96.7844 666.815 96.6139C667.013 94.1042 666.976 91.5816 666.705 89.0789C669.209 90.3521 672.079 90.7121 674.82 90.0969C679.699 89.1102 684.132 86.5815 687.464 82.8837C690.797 79.186 692.853 74.515 693.329 69.5599C693.359 69.2019 693.292 68.8424 693.135 68.5191C692.978 68.1959 692.737 67.9208 692.438 67.7229C688.518 65.1398 683.914 63.7928 679.22 63.8562C674.527 63.9197 669.961 65.3907 666.113 68.0789C663.518 63.7774 659.603 60.4289 654.952 58.5315C650.3 56.6342 645.161 56.2896 640.298 57.5489C639.947 57.6385 639.627 57.8199 639.371 58.0744C639.114 58.329 638.93 58.6474 638.838 58.9969C635.064 73.4229 646.531 86.1779 655.691 86.1779C657.784 86.1713 659.839 85.6136 661.649 84.5609C662.746 88.498 663.103 92.6044 662.703 96.6719C655.224 97.0384 647.846 98.5538 640.828 101.165C629.146 105.45 630.697 116.425 644.428 119.114C658.486 121.88 672.949 121.88 687.008 119.114C700.708 116.432 702.318 105.46 690.608 101.165H690.615ZM689.098 70.4099C688.47 74.2601 686.686 77.8285 683.984 80.6422C681.282 83.4558 677.788 85.3818 673.967 86.1649C672.684 86.4716 671.344 86.4446 670.075 86.0865C668.806 85.7283 667.65 85.0509 666.717 84.1189C670.342 79.7723 675.19 76.6147 680.631 75.0549C680.886 74.9796 681.123 74.8544 681.33 74.6866C681.536 74.5187 681.707 74.3115 681.832 74.077C681.957 73.8425 682.035 73.5854 682.06 73.3206C682.085 73.0559 682.058 72.7888 681.979 72.5349C681.81 72.0216 681.446 71.5954 680.965 71.3481C680.485 71.1007 679.927 71.0522 679.411 71.2129C674.903 72.5122 670.738 74.7889 667.211 77.8809C667.87 75.9905 668.015 73.9585 667.629 71.9939C670.647 69.6295 674.301 68.2166 678.125 67.9347C681.949 67.6528 685.77 68.5147 689.103 70.4109L689.098 70.4099ZM651.513 80.9469C648.171 78.9666 645.519 76.0074 643.914 72.4699C642.31 68.9324 641.832 64.9873 642.544 61.1689C646.37 60.4391 650.327 60.8911 653.89 62.4645C657.453 64.038 660.453 66.6586 662.491 69.9779C663.204 71.0639 663.625 72.3157 663.713 73.6122C663.8 74.9086 663.551 76.2057 662.991 77.3779C660.909 73.6161 657.67 70.6261 653.755 68.8519C653.258 68.637 652.698 68.6252 652.193 68.8191C651.688 69.013 651.279 69.397 651.055 69.8889C650.948 70.1319 650.89 70.3939 650.885 70.6594C650.881 70.925 650.929 71.1888 651.027 71.4355C651.126 71.6822 651.272 71.9068 651.459 72.0962C651.645 72.2857 651.867 72.4361 652.112 72.5389C655.68 74.2228 658.532 77.1233 660.155 80.7199C658.899 81.6102 657.407 82.1072 655.868 82.1476C654.329 82.1881 652.813 81.7701 651.513 80.9469ZM686.213 115.167C672.684 117.828 658.766 117.828 645.238 115.167C641.197 114.376 637.107 112.223 637.107 109.637C637.107 107.904 639.085 106.102 642.268 104.937C648.657 102.56 655.363 101.143 662.168 100.731C661.987 101.752 661.767 102.797 661.509 103.866C661.448 104.125 661.439 104.393 661.482 104.656C661.525 104.918 661.621 105.17 661.762 105.395C661.903 105.621 662.088 105.816 662.305 105.969C662.522 106.123 662.768 106.232 663.028 106.29C663.553 106.416 664.107 106.33 664.569 106.051C665.032 105.771 665.365 105.321 665.498 104.797C665.839 103.392 666.12 102.003 666.34 100.631C674.143 100.747 681.868 102.201 689.179 104.931C692.363 106.099 694.34 107.901 694.34 109.631C694.34 112.216 690.249 114.37 686.209 115.161L686.213 115.167Z" fill="#80B500"/>
<path d="M307.461 229.796C306.219 229.796 305.136 229.518 304.212 228.96C303.3 228.39 302.59 227.592 302.084 226.566C301.59 225.54 301.343 224.324 301.343 222.918C301.343 221.854 301.482 220.904 301.761 220.068C302.052 219.22 302.464 218.504 302.996 217.921C303.528 217.326 304.167 216.87 304.915 216.553C305.675 216.224 306.523 216.059 307.461 216.059C308.727 216.059 309.817 216.338 310.729 216.895C311.653 217.453 312.363 218.244 312.857 219.27C313.363 220.284 313.617 221.493 313.617 222.899C313.617 223.963 313.471 224.92 313.18 225.768C312.888 226.617 312.477 227.339 311.945 227.934C311.413 228.53 310.767 228.992 310.007 229.321C309.259 229.638 308.411 229.796 307.461 229.796ZM307.461 228.409C308.423 228.409 309.234 228.194 309.893 227.763C310.564 227.333 311.077 226.706 311.432 225.882C311.786 225.059 311.964 224.071 311.964 222.918C311.964 221.183 311.571 219.84 310.786 218.89C310.013 217.928 308.905 217.446 307.461 217.446C306.523 217.446 305.719 217.662 305.048 218.092C304.389 218.523 303.882 219.15 303.528 219.973C303.173 220.784 302.996 221.766 302.996 222.918C302.996 224.641 303.388 225.99 304.174 226.965C304.959 227.928 306.055 228.409 307.461 228.409ZM316.972 229.758C316.719 229.758 316.522 229.689 316.383 229.549C316.256 229.41 316.193 229.214 316.193 228.96V221.037C316.193 220.784 316.256 220.594 316.383 220.467C316.51 220.328 316.693 220.258 316.934 220.258C317.175 220.258 317.358 220.328 317.485 220.467C317.624 220.594 317.694 220.784 317.694 221.037V222.576H317.504C317.707 221.829 318.093 221.253 318.663 220.847C319.233 220.442 319.936 220.227 320.772 220.201C320.962 220.189 321.114 220.233 321.228 220.334C321.342 220.423 321.405 220.581 321.418 220.809C321.431 221.025 321.38 221.196 321.266 221.322C321.152 221.449 320.975 221.525 320.734 221.55L320.43 221.588C319.569 221.664 318.904 221.943 318.435 222.424C317.979 222.893 317.751 223.539 317.751 224.362V228.96C317.751 229.214 317.681 229.41 317.542 229.549C317.415 229.689 317.225 229.758 316.972 229.758ZM326.976 233.216C326.305 233.216 325.646 233.134 325 232.969C324.367 232.817 323.791 232.57 323.271 232.228C323.119 232.14 323.018 232.032 322.967 231.905C322.929 231.779 322.923 231.652 322.948 231.525C322.974 231.411 323.031 231.304 323.119 231.202C323.208 231.114 323.309 231.057 323.423 231.031C323.55 231.006 323.677 231.025 323.803 231.088C324.361 231.43 324.893 231.665 325.399 231.791C325.906 231.918 326.406 231.981 326.9 231.981C327.8 231.981 328.477 231.741 328.933 231.259C329.402 230.778 329.636 230.081 329.636 229.169V227.022H329.826C329.636 227.757 329.231 228.34 328.61 228.77C328.002 229.201 327.287 229.416 326.463 229.416C325.615 229.416 324.88 229.226 324.259 228.846C323.639 228.454 323.157 227.909 322.815 227.212C322.486 226.516 322.321 225.711 322.321 224.799C322.321 224.115 322.416 223.495 322.606 222.937C322.796 222.367 323.069 221.886 323.423 221.493C323.791 221.088 324.228 220.778 324.734 220.562C325.254 220.334 325.83 220.22 326.463 220.22C327.299 220.22 328.021 220.436 328.629 220.866C329.237 221.284 329.63 221.854 329.807 222.576L329.617 222.804V221.037C329.617 220.784 329.681 220.594 329.807 220.467C329.947 220.328 330.137 220.258 330.377 220.258C330.631 220.258 330.821 220.328 330.947 220.467C331.074 220.594 331.137 220.784 331.137 221.037V228.96C331.137 230.366 330.783 231.424 330.073 232.133C329.377 232.855 328.344 233.216 326.976 233.216ZM326.748 228.162C327.344 228.162 327.857 228.029 328.287 227.763C328.718 227.485 329.047 227.092 329.275 226.585C329.516 226.079 329.636 225.483 329.636 224.799C329.636 223.773 329.377 222.963 328.857 222.367C328.338 221.759 327.635 221.455 326.748 221.455C326.166 221.455 325.659 221.595 325.228 221.873C324.798 222.139 324.462 222.526 324.221 223.032C323.993 223.526 323.879 224.115 323.879 224.799C323.879 225.825 324.139 226.642 324.658 227.25C325.178 227.858 325.874 228.162 326.748 228.162ZM336.931 229.796C336.298 229.796 335.728 229.676 335.221 229.435C334.727 229.182 334.334 228.84 334.043 228.409C333.752 227.979 333.606 227.497 333.606 226.965C333.606 226.281 333.777 225.743 334.119 225.35C334.474 224.958 335.05 224.679 335.848 224.514C336.659 224.35 337.761 224.267 339.154 224.267H340.009V225.274H339.173C338.147 225.274 337.336 225.325 336.741 225.426C336.158 225.515 335.747 225.673 335.506 225.901C335.278 226.129 335.164 226.452 335.164 226.87C335.164 227.39 335.341 227.814 335.696 228.143C336.063 228.473 336.557 228.637 337.178 228.637C337.685 228.637 338.128 228.517 338.508 228.276C338.901 228.036 339.205 227.706 339.42 227.288C339.648 226.87 339.762 226.389 339.762 225.844V223.678C339.762 222.893 339.604 222.329 339.287 221.987C338.97 221.633 338.451 221.455 337.729 221.455C337.286 221.455 336.842 221.512 336.399 221.626C335.956 221.74 335.487 221.924 334.993 222.177C334.816 222.266 334.664 222.298 334.537 222.272C334.41 222.234 334.309 222.165 334.233 222.063C334.157 221.962 334.113 221.848 334.1 221.721C334.087 221.582 334.113 221.449 334.176 221.322C334.252 221.196 334.366 221.094 334.518 221.018C335.075 220.74 335.626 220.537 336.171 220.41C336.716 220.284 337.235 220.22 337.729 220.22C338.527 220.22 339.186 220.353 339.705 220.619C340.224 220.873 340.611 221.265 340.864 221.797C341.117 222.317 341.244 222.988 341.244 223.811V228.96C341.244 229.214 341.181 229.41 341.054 229.549C340.94 229.689 340.769 229.758 340.541 229.758C340.3 229.758 340.117 229.689 339.99 229.549C339.863 229.41 339.8 229.214 339.8 228.96V227.478H339.971C339.87 227.96 339.673 228.371 339.382 228.713C339.103 229.055 338.755 229.321 338.337 229.511C337.919 229.701 337.45 229.796 336.931 229.796ZM344.859 229.758C344.606 229.758 344.416 229.689 344.289 229.549C344.163 229.41 344.099 229.214 344.099 228.96V221.037C344.099 220.784 344.163 220.594 344.289 220.467C344.416 220.328 344.6 220.258 344.84 220.258C345.081 220.258 345.265 220.328 345.391 220.467C345.531 220.594 345.6 220.784 345.6 221.037V222.671L345.391 222.443C345.657 221.709 346.088 221.158 346.683 220.79C347.291 220.41 347.988 220.22 348.773 220.22C349.508 220.22 350.116 220.353 350.597 220.619C351.091 220.885 351.459 221.291 351.699 221.835C351.94 222.367 352.06 223.045 352.06 223.868V228.96C352.06 229.214 351.991 229.41 351.851 229.549C351.725 229.689 351.541 229.758 351.3 229.758C351.047 229.758 350.851 229.689 350.711 229.549C350.585 229.41 350.521 229.214 350.521 228.96V223.963C350.521 223.102 350.35 222.475 350.008 222.082C349.679 221.677 349.147 221.474 348.412 221.474C347.564 221.474 346.886 221.74 346.379 222.272C345.885 222.792 345.638 223.488 345.638 224.362V228.96C345.638 229.492 345.379 229.758 344.859 229.758ZM355.658 229.72C355.405 229.72 355.215 229.651 355.088 229.511C354.961 229.359 354.898 229.15 354.898 228.884V221.113C354.898 220.847 354.961 220.645 355.088 220.505C355.215 220.366 355.405 220.296 355.658 220.296C355.899 220.296 356.089 220.366 356.228 220.505C356.367 220.645 356.437 220.847 356.437 221.113V228.884C356.437 229.15 356.367 229.359 356.228 229.511C356.101 229.651 355.911 229.72 355.658 229.72ZM355.658 218.168C355.341 218.168 355.094 218.086 354.917 217.921C354.74 217.744 354.651 217.51 354.651 217.218C354.651 216.914 354.74 216.686 354.917 216.534C355.094 216.37 355.341 216.287 355.658 216.287C355.987 216.287 356.234 216.37 356.399 216.534C356.576 216.686 356.665 216.914 356.665 217.218C356.665 217.51 356.576 217.744 356.399 217.921C356.234 218.086 355.987 218.168 355.658 218.168ZM363.228 229.796C362.303 229.796 361.505 229.594 360.834 229.188C360.163 228.783 359.643 228.219 359.276 227.497C358.921 226.763 358.744 225.914 358.744 224.951C358.744 224.217 358.845 223.558 359.048 222.975C359.251 222.393 359.548 221.899 359.941 221.493C360.334 221.075 360.802 220.759 361.347 220.543C361.904 220.328 362.531 220.22 363.228 220.22C363.684 220.22 364.159 220.29 364.653 220.429C365.147 220.569 365.597 220.809 366.002 221.151C366.129 221.24 366.211 221.348 366.249 221.474C366.287 221.601 366.287 221.728 366.249 221.854C366.211 221.968 366.148 222.07 366.059 222.158C365.97 222.234 365.856 222.279 365.717 222.291C365.59 222.304 365.457 222.26 365.318 222.158C364.989 221.905 364.653 221.728 364.311 221.626C363.969 221.525 363.64 221.474 363.323 221.474C362.829 221.474 362.398 221.557 362.031 221.721C361.664 221.873 361.353 222.095 361.1 222.386C360.847 222.678 360.65 223.039 360.511 223.469C360.384 223.9 360.321 224.4 360.321 224.97C360.321 226.072 360.581 226.946 361.1 227.592C361.619 228.226 362.36 228.542 363.323 228.542C363.64 228.542 363.963 228.492 364.292 228.39C364.634 228.289 364.976 228.112 365.318 227.858C365.457 227.757 365.59 227.713 365.717 227.725C365.844 227.738 365.951 227.789 366.04 227.877C366.129 227.953 366.186 228.055 366.211 228.181C366.249 228.308 366.249 228.435 366.211 228.561C366.173 228.675 366.091 228.777 365.964 228.865C365.559 229.195 365.115 229.435 364.634 229.587C364.153 229.727 363.684 229.796 363.228 229.796ZM374.071 229.625C373.793 229.625 373.577 229.556 373.425 229.416C373.286 229.264 373.216 229.049 373.216 228.77V217.085C373.216 216.807 373.286 216.598 373.425 216.458C373.577 216.306 373.793 216.23 374.071 216.23H378.574C379.499 216.23 380.278 216.37 380.911 216.648C381.557 216.914 382.051 217.307 382.393 217.826C382.735 218.346 382.906 218.979 382.906 219.726C382.906 220.562 382.659 221.259 382.165 221.816C381.684 222.374 381.025 222.741 380.189 222.918V222.652C381.139 222.766 381.88 223.108 382.412 223.678C382.957 224.248 383.229 225.002 383.229 225.939C383.229 227.13 382.843 228.042 382.07 228.675C381.298 229.309 380.208 229.625 378.802 229.625H374.071ZM374.736 228.371H378.65C379.664 228.371 380.424 228.169 380.93 227.763C381.437 227.358 381.69 226.744 381.69 225.92C381.69 225.084 381.437 224.47 380.93 224.077C380.424 223.672 379.664 223.469 378.65 223.469H374.736V228.371ZM374.736 222.215H378.346C379.334 222.215 380.082 222.013 380.588 221.607C381.108 221.202 381.367 220.619 381.367 219.859C381.367 219.074 381.108 218.485 380.588 218.092C380.082 217.687 379.334 217.484 378.346 217.484H374.736V222.215ZM386.626 229.758C386.373 229.758 386.177 229.689 386.037 229.549C385.911 229.41 385.847 229.214 385.847 228.96V221.037C385.847 220.784 385.911 220.594 386.037 220.467C386.164 220.328 386.348 220.258 386.588 220.258C386.829 220.258 387.013 220.328 387.139 220.467C387.279 220.594 387.348 220.784 387.348 221.037V222.576H387.158C387.361 221.829 387.747 221.253 388.317 220.847C388.887 220.442 389.59 220.227 390.426 220.201C390.616 220.189 390.768 220.233 390.882 220.334C390.996 220.423 391.06 220.581 391.072 220.809C391.085 221.025 391.034 221.196 390.92 221.322C390.806 221.449 390.629 221.525 390.388 221.55L390.084 221.588C389.223 221.664 388.558 221.943 388.089 222.424C387.633 222.893 387.405 223.539 387.405 224.362V228.96C387.405 229.214 387.336 229.41 387.196 229.549C387.07 229.689 386.88 229.758 386.626 229.758ZM395.471 229.796C394.838 229.796 394.268 229.676 393.761 229.435C393.267 229.182 392.874 228.84 392.583 228.409C392.292 227.979 392.146 227.497 392.146 226.965C392.146 226.281 392.317 225.743 392.659 225.35C393.014 224.958 393.59 224.679 394.388 224.514C395.199 224.35 396.301 224.267 397.694 224.267H398.549V225.274H397.713C396.687 225.274 395.876 225.325 395.281 225.426C394.698 225.515 394.287 225.673 394.046 225.901C393.818 226.129 393.704 226.452 393.704 226.87C393.704 227.39 393.881 227.814 394.236 228.143C394.603 228.473 395.097 228.637 395.718 228.637C396.225 228.637 396.668 228.517 397.048 228.276C397.441 228.036 397.745 227.706 397.96 227.288C398.188 226.87 398.302 226.389 398.302 225.844V223.678C398.302 222.893 398.144 222.329 397.827 221.987C397.51 221.633 396.991 221.455 396.269 221.455C395.826 221.455 395.382 221.512 394.939 221.626C394.496 221.74 394.027 221.924 393.533 222.177C393.356 222.266 393.204 222.298 393.077 222.272C392.95 222.234 392.849 222.165 392.773 222.063C392.697 221.962 392.653 221.848 392.64 221.721C392.627 221.582 392.653 221.449 392.716 221.322C392.792 221.196 392.906 221.094 393.058 221.018C393.615 220.74 394.166 220.537 394.711 220.41C395.256 220.284 395.775 220.22 396.269 220.22C397.067 220.22 397.726 220.353 398.245 220.619C398.764 220.873 399.151 221.265 399.404 221.797C399.657 222.317 399.784 222.988 399.784 223.811V228.96C399.784 229.214 399.721 229.41 399.594 229.549C399.48 229.689 399.309 229.758 399.081 229.758C398.84 229.758 398.657 229.689 398.53 229.549C398.403 229.41 398.34 229.214 398.34 228.96V227.478H398.511C398.41 227.96 398.213 228.371 397.922 228.713C397.643 229.055 397.295 229.321 396.877 229.511C396.459 229.701 395.99 229.796 395.471 229.796ZM403.399 229.758C403.146 229.758 402.956 229.689 402.829 229.549C402.703 229.41 402.639 229.214 402.639 228.96V221.037C402.639 220.784 402.703 220.594 402.829 220.467C402.956 220.328 403.14 220.258 403.38 220.258C403.621 220.258 403.805 220.328 403.931 220.467C404.071 220.594 404.14 220.784 404.14 221.037V222.671L403.931 222.443C404.197 221.709 404.628 221.158 405.223 220.79C405.831 220.41 406.528 220.22 407.313 220.22C408.048 220.22 408.656 220.353 409.137 220.619C409.631 220.885 409.999 221.291 410.239 221.835C410.48 222.367 410.6 223.045 410.6 223.868V228.96C410.6 229.214 410.531 229.41 410.391 229.549C410.265 229.689 410.081 229.758 409.84 229.758C409.587 229.758 409.391 229.689 409.251 229.549C409.125 229.41 409.061 229.214 409.061 228.96V223.963C409.061 223.102 408.89 222.475 408.548 222.082C408.219 221.677 407.687 221.474 406.952 221.474C406.104 221.474 405.426 221.74 404.919 222.272C404.425 222.792 404.178 223.488 404.178 224.362V228.96C404.178 229.492 403.919 229.758 403.399 229.758ZM417.352 229.796C416.427 229.796 415.629 229.594 414.958 229.188C414.287 228.783 413.767 228.219 413.4 227.497C413.045 226.763 412.868 225.914 412.868 224.951C412.868 224.217 412.969 223.558 413.172 222.975C413.375 222.393 413.672 221.899 414.065 221.493C414.458 221.075 414.926 220.759 415.471 220.543C416.028 220.328 416.655 220.22 417.352 220.22C417.808 220.22 418.283 220.29 418.777 220.429C419.271 220.569 419.721 220.809 420.126 221.151C420.253 221.24 420.335 221.348 420.373 221.474C420.411 221.601 420.411 221.728 420.373 221.854C420.335 221.968 420.272 222.07 420.183 222.158C420.094 222.234 419.98 222.279 419.841 222.291C419.714 222.304 419.581 222.26 419.442 222.158C419.113 221.905 418.777 221.728 418.435 221.626C418.093 221.525 417.764 221.474 417.447 221.474C416.953 221.474 416.522 221.557 416.155 221.721C415.788 221.873 415.477 222.095 415.224 222.386C414.971 222.678 414.774 223.039 414.635 223.469C414.508 223.9 414.445 224.4 414.445 224.97C414.445 226.072 414.705 226.946 415.224 227.592C415.743 228.226 416.484 228.542 417.447 228.542C417.764 228.542 418.087 228.492 418.416 228.39C418.758 228.289 419.1 228.112 419.442 227.858C419.581 227.757 419.714 227.713 419.841 227.725C419.968 227.738 420.075 227.789 420.164 227.877C420.253 227.953 420.31 228.055 420.335 228.181C420.373 228.308 420.373 228.435 420.335 228.561C420.297 228.675 420.215 228.777 420.088 228.865C419.683 229.195 419.239 229.435 418.758 229.587C418.277 229.727 417.808 229.796 417.352 229.796ZM422.993 229.758C422.74 229.758 422.55 229.689 422.423 229.549C422.296 229.41 422.233 229.214 422.233 228.96V216.876C422.233 216.623 422.296 216.433 422.423 216.306C422.55 216.167 422.74 216.097 422.993 216.097C423.234 216.097 423.424 216.167 423.563 216.306C423.702 216.433 423.772 216.623 423.772 216.876V222.443H423.525C423.791 221.709 424.222 221.158 424.817 220.79C425.425 220.41 426.122 220.22 426.907 220.22C427.642 220.22 428.25 220.353 428.731 220.619C429.225 220.885 429.592 221.291 429.833 221.835C430.074 222.367 430.194 223.045 430.194 223.868V228.96C430.194 229.214 430.124 229.41 429.985 229.549C429.858 229.689 429.675 229.758 429.434 229.758C429.181 229.758 428.984 229.689 428.845 229.549C428.718 229.41 428.655 229.214 428.655 228.96V223.963C428.655 223.102 428.484 222.475 428.142 222.082C427.813 221.677 427.281 221.474 426.546 221.474C425.697 221.474 425.02 221.74 424.513 222.272C424.019 222.792 423.772 223.488 423.772 224.362V228.96C423.772 229.492 423.512 229.758 422.993 229.758Z" fill="#666E77"/>
<path d="M345.62 155.08V185.625H339.162V161.21H338.983L331.988 165.595V159.867L339.55 155.08H345.62ZM363.932 154.662C365.503 154.662 367.014 154.926 368.466 155.453C369.928 155.98 371.23 156.82 372.374 157.973C373.527 159.127 374.437 160.658 375.103 162.567C375.779 164.466 376.122 166.798 376.132 169.562C376.132 172.157 375.839 174.474 375.252 176.512C374.676 178.541 373.845 180.266 372.762 181.688C371.678 183.11 370.37 184.193 368.839 184.939C367.308 185.675 365.597 186.043 363.708 186.043C361.67 186.043 359.87 185.65 358.309 184.865C356.748 184.069 355.49 182.99 354.536 181.628C353.591 180.256 353.019 178.715 352.82 177.005H359.189C359.438 178.118 359.96 178.983 360.755 179.6C361.551 180.206 362.535 180.509 363.708 180.509C365.697 180.509 367.208 179.644 368.242 177.914C369.276 176.174 369.798 173.793 369.808 170.77H369.6C369.142 171.665 368.526 172.436 367.75 173.082C366.975 173.718 366.085 174.21 365.08 174.558C364.086 174.906 363.027 175.08 361.904 175.08C360.104 175.08 358.498 174.658 357.086 173.813C355.674 172.968 354.561 171.804 353.745 170.323C352.93 168.841 352.522 167.151 352.522 165.252C352.512 163.203 352.985 161.379 353.939 159.778C354.894 158.177 356.226 156.924 357.936 156.019C359.656 155.105 361.655 154.652 363.932 154.662ZM363.977 159.733C362.972 159.733 362.078 159.972 361.292 160.449C360.517 160.926 359.9 161.568 359.443 162.373C358.995 163.179 358.776 164.078 358.786 165.073C358.786 166.077 359.005 166.982 359.443 167.787C359.89 168.583 360.497 169.219 361.262 169.696C362.038 170.164 362.923 170.397 363.917 170.397C364.663 170.397 365.354 170.258 365.99 169.98C366.627 169.701 367.178 169.318 367.646 168.831C368.123 168.334 368.496 167.762 368.764 167.116C369.033 166.47 369.167 165.784 369.167 165.058C369.157 164.093 368.928 163.208 368.481 162.403C368.034 161.598 367.417 160.951 366.632 160.464C365.846 159.977 364.961 159.733 363.977 159.733ZM380.994 185.625L393.657 160.568V160.36H378.906V155.08H400.339V160.434L387.661 185.625H380.994Z" fill="#223645"/>
<path d="M389.779 81.3973V80.4383C389.728 79.9179 389.474 79.4385 389.073 79.1036C388.671 78.7686 388.154 78.6051 387.633 78.6483H386.485C378.343 78.6483 371.719 84.1833 371.719 90.9883V91.2053L364.533 97.2133V78.3683C372.213 77.9393 378.304 72.5823 378.304 66.0573V65.0953C378.253 64.5753 378 64.0961 377.599 63.761C377.198 63.426 376.682 63.2619 376.161 63.3043H375.013C371.199 63.2575 367.49 64.5514 364.533 66.9603V61.2603C364.443 60.7574 364.179 60.3021 363.787 59.9742C363.396 59.6462 362.901 59.4666 362.39 59.4666C361.879 59.4666 361.384 59.6462 360.993 59.9742C360.601 60.3021 360.337 60.7574 360.247 61.2603V82.3043C357.29 79.8952 353.58 78.6012 349.766 78.6483H348.619C348.098 78.6059 347.582 78.77 347.181 79.105C346.78 79.4401 346.527 79.9193 346.476 80.4393V81.3983C346.476 87.9233 352.567 93.2803 360.247 93.7093V101.536V108.72L353.057 102.711V102.494C353.057 95.6943 346.433 90.1553 338.291 90.1553H337.143C336.622 90.1129 336.106 90.277 335.705 90.612C335.304 90.9471 335.051 91.4263 335 91.9463V92.9053C335 97.3693 337.851 101.287 342.112 103.454C337.851 105.621 335 109.539 335 114.003V114.962C335.051 115.482 335.304 115.962 335.705 116.297C336.106 116.632 336.622 116.796 337.143 116.753H338.291C345.197 116.753 351.011 112.77 352.616 107.409L360.247 113.786V118.798C360.337 119.301 360.601 119.757 360.993 120.084C361.384 120.412 361.879 120.592 362.39 120.592C362.901 120.592 363.396 120.412 363.787 120.084C364.179 119.757 364.443 119.301 364.533 118.798V102.278L372.164 95.9013C373.77 101.262 379.583 105.245 386.489 105.245H387.633C388.154 105.288 388.67 105.124 389.071 104.789C389.472 104.454 389.725 103.974 389.776 103.454V102.495C389.776 98.0313 386.925 94.1133 382.664 91.9463C386.933 89.7793 389.779 85.8623 389.779 81.3973ZM373.966 66.9293C373.473 71.0613 369.529 74.3573 364.584 74.7693C365.077 70.6373 369.021 67.3413 373.966 66.9293ZM350.813 82.2683C355.758 82.6803 359.702 85.9763 360.195 90.1083C355.25 89.7003 351.306 86.4043 350.813 82.2683ZM339.333 113.128C339.826 108.996 343.77 105.7 348.715 105.288C348.226 109.42 344.282 112.716 339.333 113.128ZM339.333 93.7803C344.278 94.1923 348.222 97.4883 348.715 101.62C343.774 101.208 339.833 97.9123 339.333 93.7803ZM385.433 101.62C380.488 101.208 376.544 97.9123 376.051 93.7803C381.005 94.1923 384.949 97.4883 385.442 101.62H385.433ZM376.051 90.1123C376.544 85.9803 380.488 82.6843 385.433 82.2723C384.949 86.4043 381.005 89.7003 376.06 90.1123H376.051Z" fill="#80B500"/>
<path d="M8.39209 228.797C6.96076 228.797 5.75109 228.525 4.76309 227.98C3.78776 227.436 3.04676 226.65 2.54009 225.624C2.03343 224.598 1.78009 223.37 1.78009 221.938C1.78009 220.874 1.91943 219.918 2.19809 219.069C2.48943 218.221 2.90743 217.505 3.45209 216.922C4.00943 216.327 4.68076 215.871 5.46609 215.554C6.26409 215.225 7.16343 215.06 8.16409 215.06C8.96209 215.06 9.73476 215.174 10.4821 215.402C11.2294 215.618 11.8944 215.966 12.4771 216.447C12.6291 216.561 12.7241 216.688 12.7621 216.827C12.8001 216.967 12.7938 217.106 12.7431 217.245C12.7051 217.385 12.6354 217.505 12.5341 217.606C12.4454 217.695 12.3251 217.746 12.1731 217.758C12.0338 217.771 11.8881 217.727 11.7361 217.625C11.2168 217.22 10.6658 216.929 10.0831 216.751C9.50043 216.561 8.85443 216.466 8.14509 216.466C7.13176 216.466 6.27043 216.682 5.56109 217.112C4.86443 217.543 4.33243 218.164 3.96509 218.974C3.61043 219.785 3.43309 220.773 3.43309 221.938C3.43309 223.712 3.84476 225.067 4.66809 226.004C5.50409 226.942 6.75809 227.41 8.43009 227.41C9.03809 227.41 9.63343 227.353 10.2161 227.239C10.7988 227.113 11.3498 226.942 11.8691 226.726L11.5271 227.619V222.888H8.81009C8.58209 222.888 8.41109 222.831 8.29709 222.717C8.18309 222.603 8.12609 222.451 8.12609 222.261C8.12609 222.059 8.18309 221.907 8.29709 221.805C8.41109 221.704 8.58209 221.653 8.81009 221.653H12.2111C12.4264 221.653 12.5911 221.71 12.7051 221.824C12.8191 221.938 12.8761 222.103 12.8761 222.318V227.277C12.8761 227.467 12.8444 227.626 12.7811 227.752C12.7178 227.879 12.6101 227.974 12.4581 228.037C11.9261 228.253 11.2864 228.436 10.5391 228.588C9.80443 228.728 9.08876 228.797 8.39209 228.797ZM19.6892 228.797C18.7899 228.797 18.0109 228.601 17.3522 228.208C16.6936 227.816 16.1806 227.265 15.8132 226.555C15.4586 225.833 15.2812 224.985 15.2812 224.009C15.2812 223.275 15.3826 222.616 15.5852 222.033C15.7879 221.438 16.0856 220.931 16.4782 220.513C16.8709 220.095 17.3332 219.779 17.8652 219.563C18.4099 219.335 19.0179 219.221 19.6892 219.221C20.5886 219.221 21.3676 219.418 22.0262 219.81C22.6849 220.203 23.1916 220.76 23.5462 221.482C23.9136 222.192 24.0972 223.034 24.0972 224.009C24.0972 224.744 23.9959 225.403 23.7932 225.985C23.5906 226.568 23.2929 227.075 22.9002 227.505C22.5076 227.923 22.0389 228.246 21.4942 228.474C20.9622 228.69 20.3606 228.797 19.6892 228.797ZM19.6892 227.562C20.2592 227.562 20.7596 227.423 21.1902 227.144C21.6209 226.866 21.9502 226.46 22.1782 225.928C22.4189 225.396 22.5392 224.757 22.5392 224.009C22.5392 222.857 22.2796 221.976 21.7602 221.368C21.2536 220.76 20.5632 220.456 19.6892 220.456C19.1066 220.456 18.5999 220.596 18.1692 220.874C17.7512 221.14 17.4219 221.539 17.1812 222.071C16.9532 222.591 16.8392 223.237 16.8392 224.009C16.8392 225.149 17.0989 226.03 17.6182 226.65C18.1376 227.258 18.8279 227.562 19.6892 227.562ZM30.2468 228.797C29.3475 228.797 28.5685 228.601 27.9098 228.208C27.2512 227.816 26.7382 227.265 26.3708 226.555C26.0162 225.833 25.8388 224.985 25.8388 224.009C25.8388 223.275 25.9402 222.616 26.1428 222.033C26.3455 221.438 26.6432 220.931 27.0358 220.513C27.4285 220.095 27.8908 219.779 28.4228 219.563C28.9675 219.335 29.5755 219.221 30.2468 219.221C31.1462 219.221 31.9252 219.418 32.5838 219.81C33.2425 220.203 33.7492 220.76 34.1038 221.482C34.4712 222.192 34.6548 223.034 34.6548 224.009C34.6548 224.744 34.5535 225.403 34.3508 225.985C34.1482 226.568 33.8505 227.075 33.4578 227.505C33.0652 227.923 32.5965 228.246 32.0518 228.474C31.5198 228.69 30.9182 228.797 30.2468 228.797ZM30.2468 227.562C30.8168 227.562 31.3172 227.423 31.7478 227.144C32.1785 226.866 32.5078 226.46 32.7358 225.928C32.9765 225.396 33.0968 224.757 33.0968 224.009C33.0968 222.857 32.8372 221.976 32.3178 221.368C31.8112 220.76 31.1208 220.456 30.2468 220.456C29.6642 220.456 29.1575 220.596 28.7268 220.874C28.3088 221.14 27.9795 221.539 27.7388 222.071C27.5108 222.591 27.3968 223.237 27.3968 224.009C27.3968 225.149 27.6565 226.03 28.1758 226.65C28.6952 227.258 29.3855 227.562 30.2468 227.562ZM40.4815 228.797C39.6581 228.797 38.9361 228.601 38.3155 228.208C37.7075 227.816 37.2325 227.265 36.8905 226.555C36.5611 225.833 36.3965 224.985 36.3965 224.009C36.3965 223.021 36.5611 222.173 36.8905 221.463C37.2325 220.741 37.7075 220.19 38.3155 219.81C38.9361 219.418 39.6581 219.221 40.4815 219.221C41.3175 219.221 42.0331 219.43 42.6285 219.848C43.2238 220.266 43.6228 220.83 43.8255 221.539H43.6165V215.877C43.6165 215.624 43.6798 215.434 43.8065 215.307C43.9458 215.168 44.1421 215.098 44.3955 215.098C44.6361 215.098 44.8198 215.168 44.9465 215.307C45.0858 215.434 45.1555 215.624 45.1555 215.877V227.961C45.1555 228.215 45.0921 228.411 44.9655 228.55C44.8388 228.69 44.6488 228.759 44.3955 228.759C44.1548 228.759 43.9648 228.69 43.8255 228.55C43.6988 228.411 43.6355 228.215 43.6355 227.961V226.156L43.8445 226.422C43.6418 227.144 43.2365 227.721 42.6285 228.151C42.0331 228.582 41.3175 228.797 40.4815 228.797ZM40.8045 227.562C41.3745 227.562 41.8748 227.423 42.3055 227.144C42.7361 226.866 43.0655 226.46 43.2935 225.928C43.5341 225.396 43.6545 224.757 43.6545 224.009C43.6545 222.857 43.3948 221.976 42.8755 221.368C42.3688 220.76 41.6785 220.456 40.8045 220.456C40.2218 220.456 39.7151 220.596 39.2845 220.874C38.8665 221.14 38.5371 221.539 38.2965 222.071C38.0685 222.591 37.9545 223.237 37.9545 224.009C37.9545 225.149 38.2141 226.03 38.7335 226.65C39.2528 227.258 39.9431 227.562 40.8045 227.562ZM53.93 228.759C53.6767 228.759 53.4804 228.69 53.341 228.55C53.2144 228.398 53.151 228.196 53.151 227.942V216.029C53.151 215.763 53.2207 215.567 53.36 215.44C53.4994 215.301 53.6957 215.231 53.949 215.231H58.452C59.8834 215.231 60.9854 215.567 61.758 216.238C62.5307 216.91 62.917 217.866 62.917 219.107C62.917 219.893 62.7397 220.577 62.385 221.159C62.043 221.729 61.5364 222.166 60.865 222.47C60.1937 222.762 59.3894 222.907 58.452 222.907L58.642 222.66H59.022C59.516 222.66 59.9467 222.787 60.314 223.04C60.6814 223.294 61.017 223.699 61.321 224.256L63.145 227.657C63.2464 227.835 63.2907 228.012 63.278 228.189C63.278 228.354 63.221 228.493 63.107 228.607C62.993 228.709 62.8284 228.759 62.613 228.759C62.3977 228.759 62.2204 228.709 62.081 228.607C61.9417 228.506 61.8214 228.36 61.72 228.17L59.649 224.332C59.3577 223.788 59.022 223.427 58.642 223.249C58.262 223.059 57.7617 222.964 57.141 222.964H54.709V227.942C54.709 228.196 54.6457 228.398 54.519 228.55C54.3924 228.69 54.196 228.759 53.93 228.759ZM54.709 221.729H58.224C59.2627 221.729 60.048 221.514 60.58 221.083C61.112 220.64 61.378 219.981 61.378 219.107C61.378 218.259 61.112 217.619 60.58 217.188C60.048 216.745 59.2627 216.523 58.224 216.523H54.709V221.729ZM69.6089 228.797C68.6336 228.797 67.7912 228.607 67.0819 228.227C66.3852 227.835 65.8406 227.284 65.4479 226.574C65.0679 225.865 64.8779 225.016 64.8779 224.028C64.8779 223.066 65.0679 222.23 65.4479 221.52C65.8279 220.798 66.3472 220.235 67.0059 219.829C67.6772 219.424 68.4499 219.221 69.3239 219.221C69.9446 219.221 70.5019 219.329 70.9959 219.544C71.4899 219.747 71.9079 220.045 72.2499 220.437C72.6046 220.83 72.8706 221.305 73.0479 221.862C73.2379 222.42 73.3329 223.047 73.3329 223.743C73.3329 223.946 73.2759 224.098 73.1619 224.199C73.0479 224.288 72.8832 224.332 72.6679 224.332H66.0559V223.325H72.3069L72.0029 223.572C72.0029 222.888 71.9016 222.312 71.6989 221.843C71.4962 221.362 71.1986 220.995 70.8059 220.741C70.4259 220.488 69.9446 220.361 69.3619 220.361C68.7159 220.361 68.1649 220.513 67.7089 220.817C67.2656 221.109 66.9299 221.52 66.7019 222.052C66.4739 222.572 66.3599 223.18 66.3599 223.876V223.99C66.3599 225.156 66.6386 226.042 67.1959 226.65C67.7659 227.258 68.5702 227.562 69.6089 227.562C70.0396 227.562 70.4639 227.505 70.8819 227.391C71.3126 227.277 71.7306 227.087 72.1359 226.821C72.3132 226.707 72.4716 226.657 72.6109 226.669C72.7629 226.669 72.8832 226.714 72.9719 226.802C73.0606 226.878 73.1176 226.98 73.1429 227.106C73.1809 227.22 73.1682 227.347 73.1049 227.486C73.0542 227.626 72.9466 227.746 72.7819 227.847C72.3639 228.151 71.8699 228.386 71.2999 228.55C70.7299 228.715 70.1662 228.797 69.6089 228.797ZM78.8879 228.759C78.6725 228.759 78.4825 228.702 78.3179 228.588C78.1532 228.462 78.0139 228.272 77.8999 228.018L74.6129 220.342C74.5242 220.152 74.4925 219.975 74.5179 219.81C74.5432 219.646 74.6192 219.513 74.7459 219.411C74.8725 219.31 75.0499 219.259 75.2779 219.259C75.4805 219.259 75.6389 219.304 75.7529 219.392C75.8669 219.481 75.9682 219.639 76.0569 219.867L79.1729 227.486H78.6599L81.8329 219.867C81.9216 219.639 82.0229 219.481 82.1369 219.392C82.2509 219.304 82.4155 219.259 82.6309 219.259C82.8336 219.259 82.9855 219.31 83.0869 219.411C83.2009 219.513 83.2642 219.646 83.2769 219.81C83.3022 219.962 83.2769 220.133 83.2009 220.323L79.8759 228.018C79.7872 228.272 79.6542 228.462 79.4769 228.588C79.3122 228.702 79.1159 228.759 78.8879 228.759ZM85.9872 228.721C85.7339 228.721 85.5439 228.652 85.4172 228.512C85.2905 228.36 85.2272 228.151 85.2272 227.885V220.114C85.2272 219.848 85.2905 219.646 85.4172 219.506C85.5439 219.367 85.7339 219.297 85.9872 219.297C86.2279 219.297 86.4179 219.367 86.5572 219.506C86.6965 219.646 86.7662 219.848 86.7662 220.114V227.885C86.7662 228.151 86.6965 228.36 86.5572 228.512C86.4305 228.652 86.2405 228.721 85.9872 228.721ZM85.9872 217.169C85.6705 217.169 85.4235 217.087 85.2462 216.922C85.0689 216.745 84.9802 216.511 84.9802 216.219C84.9802 215.915 85.0689 215.687 85.2462 215.535C85.4235 215.371 85.6705 215.288 85.9872 215.288C86.3165 215.288 86.5635 215.371 86.7282 215.535C86.9055 215.687 86.9942 215.915 86.9942 216.219C86.9942 216.511 86.9055 216.745 86.7282 216.922C86.5635 217.087 86.3165 217.169 85.9872 217.169ZM93.8042 228.797C92.8289 228.797 91.9866 228.607 91.2772 228.227C90.5806 227.835 90.0359 227.284 89.6432 226.574C89.2632 225.865 89.0732 225.016 89.0732 224.028C89.0732 223.066 89.2632 222.23 89.6432 221.52C90.0232 220.798 90.5426 220.235 91.2012 219.829C91.8726 219.424 92.6452 219.221 93.5192 219.221C94.1399 219.221 94.6972 219.329 95.1912 219.544C95.6852 219.747 96.1032 220.045 96.4452 220.437C96.7999 220.83 97.0659 221.305 97.2432 221.862C97.4332 222.42 97.5282 223.047 97.5282 223.743C97.5282 223.946 97.4712 224.098 97.3572 224.199C97.2432 224.288 97.0786 224.332 96.8632 224.332H90.2512V223.325H96.5022L96.1982 223.572C96.1982 222.888 96.0969 222.312 95.8942 221.843C95.6916 221.362 95.3939 220.995 95.0012 220.741C94.6212 220.488 94.1399 220.361 93.5572 220.361C92.9112 220.361 92.3602 220.513 91.9042 220.817C91.4609 221.109 91.1252 221.52 90.8972 222.052C90.6692 222.572 90.5552 223.18 90.5552 223.876V223.99C90.5552 225.156 90.8339 226.042 91.3912 226.65C91.9612 227.258 92.7656 227.562 93.8042 227.562C94.2349 227.562 94.6592 227.505 95.0772 227.391C95.5079 227.277 95.9259 227.087 96.3312 226.821C96.5086 226.707 96.6669 226.657 96.8062 226.669C96.9582 226.669 97.0786 226.714 97.1672 226.802C97.2559 226.878 97.3129 226.98 97.3382 227.106C97.3762 227.22 97.3636 227.347 97.3002 227.486C97.2496 227.626 97.1419 227.746 96.9772 227.847C96.5592 228.151 96.0652 228.386 95.4952 228.55C94.9252 228.715 94.3616 228.797 93.8042 228.797ZM102.836 228.759C102.621 228.759 102.431 228.702 102.266 228.588C102.102 228.474 101.969 228.291 101.867 228.037L99.0362 220.342C98.9602 220.127 98.9349 219.937 98.9602 219.772C98.9982 219.608 99.0805 219.481 99.2072 219.392C99.3339 219.304 99.4922 219.259 99.6822 219.259C99.8722 219.259 100.024 219.304 100.138 219.392C100.265 219.481 100.366 219.646 100.442 219.886L103.102 227.486H102.646L105.382 219.886C105.471 219.658 105.579 219.5 105.705 219.411C105.845 219.31 106.022 219.259 106.237 219.259C106.44 219.259 106.611 219.31 106.75 219.411C106.89 219.513 106.997 219.671 107.073 219.886L109.752 227.486H109.315L112.013 219.848C112.102 219.62 112.21 219.468 112.336 219.392C112.463 219.304 112.615 219.259 112.792 219.259C112.995 219.259 113.147 219.31 113.248 219.411C113.362 219.513 113.426 219.646 113.438 219.81C113.451 219.975 113.419 220.152 113.343 220.342L110.512 228.037C110.424 228.278 110.291 228.462 110.113 228.588C109.949 228.702 109.759 228.759 109.543 228.759C109.328 228.759 109.138 228.702 108.973 228.588C108.809 228.462 108.682 228.278 108.593 228.037L105.781 220.323H106.598L103.805 228.037C103.717 228.278 103.59 228.462 103.425 228.588C103.261 228.702 103.064 228.759 102.836 228.759ZM118.55 228.797C117.98 228.797 117.404 228.728 116.821 228.588C116.251 228.449 115.719 228.208 115.225 227.866C115.099 227.778 115.01 227.676 114.959 227.562C114.909 227.436 114.89 227.315 114.902 227.201C114.928 227.075 114.978 226.967 115.054 226.878C115.143 226.79 115.244 226.739 115.358 226.726C115.485 226.701 115.624 226.726 115.776 226.802C116.27 227.106 116.745 227.322 117.201 227.448C117.67 227.562 118.132 227.619 118.588 227.619C119.31 227.619 119.855 227.486 120.222 227.22C120.59 226.954 120.773 226.593 120.773 226.137C120.773 225.783 120.653 225.504 120.412 225.301C120.172 225.086 119.792 224.921 119.272 224.807L117.543 224.427C116.745 224.263 116.15 223.978 115.757 223.572C115.377 223.167 115.187 222.641 115.187 221.995C115.187 221.425 115.333 220.938 115.624 220.532C115.928 220.114 116.353 219.791 116.897 219.563C117.442 219.335 118.075 219.221 118.797 219.221C119.355 219.221 119.88 219.297 120.374 219.449C120.881 219.589 121.337 219.817 121.742 220.133C121.869 220.222 121.951 220.33 121.989 220.456C122.04 220.57 122.046 220.691 122.008 220.817C121.983 220.931 121.926 221.033 121.837 221.121C121.749 221.197 121.641 221.242 121.514 221.254C121.388 221.267 121.255 221.229 121.115 221.14C120.735 220.887 120.349 220.703 119.956 220.589C119.564 220.463 119.177 220.399 118.797 220.399C118.088 220.399 117.55 220.539 117.182 220.817C116.815 221.096 116.631 221.463 116.631 221.919C116.631 222.274 116.745 222.565 116.973 222.793C117.201 223.021 117.556 223.186 118.037 223.287L119.766 223.648C120.59 223.826 121.204 224.111 121.609 224.503C122.027 224.883 122.236 225.403 122.236 226.061C122.236 226.897 121.901 227.562 121.229 228.056C120.558 228.55 119.665 228.797 118.55 228.797Z" fill="#666E77"/>
<path d="M39.4876 189.044C37.3796 189.044 35.5004 188.656 33.8498 187.881C32.2092 187.105 30.9066 186.036 29.9421 184.674C28.9776 183.312 28.4755 181.751 28.4357 179.991H34.6999C34.7695 181.174 35.2667 182.134 36.1914 182.869C37.1161 183.605 38.2148 183.973 39.4876 183.973C40.5018 183.973 41.3967 183.749 42.1722 183.302C42.9577 182.845 43.5692 182.213 44.0067 181.408C44.4542 180.592 44.6779 179.658 44.6779 178.604C44.6779 177.53 44.4492 176.585 43.9918 175.77C43.5444 174.955 42.9229 174.318 42.1275 173.861C41.332 173.403 40.4222 173.17 39.3981 173.16C38.5032 173.16 37.6332 173.344 36.788 173.712C35.9528 174.08 35.3015 174.582 34.8342 175.218L29.092 174.189L30.5387 158.081H49.212V163.361H35.8633L35.0728 171.012H35.2518C35.7887 170.256 36.5991 169.63 37.6829 169.133C38.7667 168.636 39.9798 168.387 41.3221 168.387C43.1616 168.387 44.8022 168.82 46.244 169.685C47.6857 170.55 48.8242 171.738 49.6594 173.249C50.4947 174.751 50.9073 176.481 50.8974 178.44C50.9073 180.498 50.43 182.327 49.4656 183.928C48.511 185.519 47.1737 186.772 45.4535 187.687C43.7433 188.592 41.7546 189.044 39.4876 189.044ZM67.1246 189.044C65.5536 189.034 64.0373 188.771 62.5756 188.254C61.1239 187.737 59.8214 186.896 58.668 185.733C57.5146 184.57 56.5998 183.028 55.9237 181.109C55.2575 179.19 54.9244 176.834 54.9244 174.04C54.9343 171.474 55.2276 169.183 55.8043 167.164C56.391 165.136 57.2262 163.416 58.31 162.004C59.4038 160.592 60.7113 159.518 62.2326 158.782C63.7539 158.036 65.4592 157.663 67.3484 157.663C69.3867 157.663 71.1864 158.061 72.7475 158.857C74.3086 159.642 75.5614 160.711 76.506 162.063C77.4606 163.416 78.0373 164.932 78.2362 166.612H71.8675C71.619 165.548 71.0969 164.713 70.3015 164.107C69.506 163.5 68.5217 163.197 67.3484 163.197C65.3597 163.197 63.8484 164.062 62.8143 165.792C61.7901 167.522 61.2681 169.874 61.2482 172.847H61.457C61.9144 171.942 62.5309 171.171 63.3065 170.535C64.092 169.889 64.9819 169.396 65.9762 169.058C66.9805 168.71 68.0394 168.536 69.1531 168.536C70.9627 168.536 72.5735 168.964 73.9854 169.819C75.3974 170.664 76.511 171.827 77.3264 173.309C78.1417 174.791 78.5494 176.486 78.5494 178.395C78.5494 180.463 78.0671 182.303 77.1026 183.913C76.1481 185.524 74.8107 186.787 73.0906 187.702C71.3803 188.607 69.3917 189.054 67.1246 189.044ZM67.0948 183.973C68.0891 183.973 68.979 183.734 69.7646 183.257C70.5501 182.78 71.1665 182.134 71.614 181.318C72.0614 180.503 72.2852 179.588 72.2852 178.574C72.2852 177.56 72.0614 176.65 71.614 175.845C71.1765 175.039 70.57 174.398 69.7944 173.92C69.0188 173.443 68.1339 173.205 67.1396 173.205C66.3938 173.205 65.7028 173.344 65.0664 173.622C64.44 173.901 63.8881 174.288 63.4109 174.786C62.9435 175.283 62.5756 175.859 62.3072 176.516C62.0387 177.162 61.9045 177.853 61.9045 178.589C61.9045 179.573 62.1282 180.473 62.5756 181.288C63.033 182.104 63.6495 182.755 64.4251 183.242C65.2106 183.729 66.1005 183.973 67.0948 183.973ZM95.1048 189.298C92.5394 189.288 90.332 188.656 88.4826 187.403C86.6431 186.151 85.2262 184.336 84.2319 181.96C83.2475 179.583 82.7603 176.724 82.7702 173.384C82.7702 170.053 83.2624 167.214 84.2468 164.867C85.2411 162.521 86.658 160.736 88.4975 159.513C90.3469 158.28 92.5494 157.663 95.1048 157.663C97.6602 157.663 99.8576 158.28 101.697 159.513C103.547 160.746 104.968 162.536 105.963 164.882C106.957 167.219 107.449 170.053 107.439 173.384C107.439 176.734 106.942 179.598 105.948 181.974C104.963 184.351 103.551 186.166 101.712 187.418C99.8725 188.671 97.6701 189.298 95.1048 189.298ZM95.1048 183.943C96.8548 183.943 98.2518 183.063 99.2958 181.303C100.34 179.543 100.857 176.903 100.847 173.384C100.847 171.067 100.608 169.138 100.131 167.597C99.6637 166.055 98.9975 164.897 98.1325 164.121C97.2773 163.346 96.2681 162.958 95.1048 162.958C93.3647 162.958 91.9727 163.828 90.9286 165.568C89.8846 167.308 89.3576 169.913 89.3477 173.384C89.3477 175.73 89.5813 177.689 90.0487 179.26C90.5259 180.821 91.1971 181.994 92.0621 182.78C92.9272 183.555 93.9414 183.943 95.1048 183.943Z" fill="#223645"/>
<path d="M67.2492 68.2916H60.8642C60.9883 66.7898 60.7968 65.2788 60.3022 63.8554C59.8076 62.432 59.0208 61.1278 57.9922 60.0266C57.0947 59.0591 56.0071 58.2874 54.7975 57.7596C53.5879 57.2319 52.2824 56.9595 50.9627 56.9595C49.6431 56.9595 48.3376 57.2319 47.128 57.7596C45.9184 58.2874 44.8308 59.0591 43.9332 60.0266L41.9522 62.1136L39.9702 60.0266C39.0727 59.0591 37.9851 58.2874 36.7755 57.7596C35.5659 57.2319 34.2604 56.9595 32.9407 56.9595C31.6211 56.9595 30.3156 57.2319 29.106 57.7596C27.8964 58.2874 26.8088 59.0591 25.9112 60.0266C24.024 62.0327 22.9816 64.6884 23.0002 67.4426C22.9817 70.197 24.0245 72.8527 25.9122 74.8586L30.7122 79.9276C29.1135 83.1174 28.2847 86.6376 28.2922 90.2056C28.2922 102.289 37.6102 112.12 49.0632 112.12H52.1632L65.7002 125.414V112.12H67.2452C78.6982 112.12 88.0162 102.289 88.0162 90.2056C88.0162 78.1226 78.7002 68.2916 67.2492 68.2916ZM28.6082 62.8706C29.1615 62.2743 29.832 61.7986 30.5775 61.4733C31.3231 61.1481 32.1278 60.9802 32.9412 60.9802C33.7547 60.9802 34.5594 61.1481 35.305 61.4733C36.0505 61.7986 36.721 62.2743 37.2742 62.8706L41.9522 67.8056L46.6302 62.8706C47.1835 62.2743 47.854 61.7986 48.5995 61.4733C49.3451 61.1481 50.1498 60.9802 50.9632 60.9802C51.7767 60.9802 52.5814 61.1481 53.327 61.4733C54.0725 61.7986 54.743 62.2743 55.2962 62.8706C56.45 64.1133 57.0912 65.7463 57.0912 67.4421C57.0912 69.1378 56.45 70.7709 55.2962 72.0136L41.9522 86.0926L28.6082 72.0136C27.4562 70.77 26.8162 69.1373 26.8162 67.4421C26.8162 65.7469 27.4562 64.1142 28.6082 62.8706ZM67.2492 108.097H61.8912V116.172L53.6672 108.097H49.0672C39.7162 108.097 32.1092 100.071 32.1092 90.2056C32.106 87.7084 32.6028 85.2358 33.5702 82.9336L41.9562 91.7816L57.9962 74.8586C58.71 74.1031 59.3069 73.2453 59.7672 72.3136H67.2492C76.6003 72.3136 84.2072 80.3396 84.2072 90.2046C84.2072 100.07 76.6003 108.097 67.2492 108.097Z" fill="#80B500"/>
<path d="M47.7578 89.061H51.7878V93.084H47.7578V89.061Z" fill="#80B500"/>
<path d="M56.6543 89.061H60.6843V93.084H56.6543V89.061Z" fill="#80B500"/>
<path d="M65.5527 89.061H69.5827V93.084H65.5527V89.061Z" fill="#80B500"/>
<path d="M213 137.956H216V175.956H213V137.956Z" fill="#80B500"/>
<path d="M516 137.956H519V175.956H516V137.956Z" fill="#80B500"/>
<path d="M820 137.956H823V175.956H820V137.956Z" fill="#80B500"/>
</svg>
