<svg width="129" height="130" viewBox="0 0 129 130" fill="none" xmlns="http://www.w3.org/2000/svg">
<g filter="url(#filter0_d_33_7164)">
<path d="M64.1777 27.8672C86.2147 35.9972 99.1777 43.5372 99.1777 62.8672C99.1777 72.1498 95.4902 81.0522 88.9265 87.616C82.3627 94.1797 73.4603 97.8672 64.1777 97.8672C54.8952 97.8672 45.9928 94.1797 39.429 87.616C32.8652 81.0522 29.1777 72.1498 29.1777 62.8672C29.1777 43.5372 42.1407 19.7372 64.1777 27.8672Z" fill="#80B500"/>
</g>
<path d="M83.9294 55.1569C83.7275 54.8318 83.4634 54.5497 83.1523 54.3269C82.8412 54.104 82.4891 53.9447 82.1164 53.8581C81.7436 53.7716 81.3573 53.7594 80.9798 53.8223C80.6023 53.8853 80.241 54.0221 79.9164 54.2249L70.2294 60.2949C69.7185 60.6177 69.3195 61.0902 69.0868 61.648C68.8542 62.2058 68.7992 62.8217 68.9294 63.4119L67.5214 64.2969H65.0214C65.0611 64.1831 65.1079 64.0719 65.1614 63.9639L66.2294 61.8099C66.3035 61.6615 66.3386 61.4967 66.3313 61.3309C66.324 61.1652 66.2746 61.0041 66.1877 60.8628C66.1008 60.7215 65.9794 60.6046 65.8348 60.5233C65.6902 60.442 65.5273 60.3988 65.3614 60.3979H53.7144C53.5486 60.3988 53.3856 60.442 53.2411 60.5233C53.0965 60.6046 52.975 60.7215 52.8882 60.8628C52.8013 61.0041 52.7519 61.1652 52.7446 61.3309C52.7373 61.4967 52.7723 61.6615 52.8464 61.8099L53.9194 63.9669C54.1206 64.374 54.2253 64.8219 54.2253 65.2759C54.2253 65.73 54.1206 66.1779 53.9194 66.5849L51.9064 70.6309C51.4192 71.6065 51.1887 72.6901 51.2367 73.7795C51.2847 74.8689 51.6097 75.9281 52.1809 76.857C52.7522 77.7858 53.5508 78.5537 54.5013 79.0881C55.4519 79.6224 56.523 79.9056 57.6134 79.9109H61.4644C62.5549 79.9056 63.626 79.6224 64.5765 79.0881C65.5271 78.5537 66.3257 77.7858 66.8969 76.857C67.4682 75.9281 67.7931 74.8689 67.8412 73.7795C67.8892 72.6901 67.6587 71.6065 67.1714 70.6309C64.9814 66.2309 65.1034 66.4939 65.0184 66.2519H67.8004C67.9826 66.2521 68.1611 66.2008 68.3154 66.1039L69.9594 65.0719C70.4297 65.4487 71.0056 65.6697 71.6073 65.7041C72.2089 65.7385 72.8063 65.5847 73.3164 65.2639L83.0004 59.1899C83.6558 58.776 84.1212 58.12 84.2952 57.3647C84.4692 56.6093 84.3377 55.8158 83.9294 55.1569ZM63.7954 62.3489C63.4385 62.9565 63.1746 63.6142 63.0124 64.2999H56.0684C55.9062 63.6142 55.6423 62.9566 55.2854 62.3489H63.7954ZM65.4374 71.5029C65.7765 72.1816 65.9369 72.9354 65.9035 73.6933C65.8701 74.4512 65.644 75.188 65.2467 75.8342C64.8493 76.4805 64.2937 77.0147 63.6325 77.3864C62.9712 77.7582 62.226 77.9552 61.4674 77.9589H57.6134C56.8548 77.9552 56.1097 77.7582 55.4484 77.3864C54.7872 77.0147 54.2316 76.4805 53.8342 75.8342C53.4368 75.188 53.2108 74.4512 53.1774 73.6933C53.144 72.9354 53.3044 72.1816 53.6434 71.5029L55.6564 67.4569C55.8464 67.0748 55.9853 66.6693 56.0694 66.2509H63.0104C63.0946 66.6693 63.2334 67.0748 63.4234 67.4569L65.4374 71.5029ZM81.9714 57.5339L72.2874 63.6089C72.1793 63.6766 72.0589 63.7223 71.9331 63.7433C71.8073 63.7644 71.6785 63.7603 71.5543 63.7314C71.43 63.7025 71.3127 63.6493 71.2091 63.5749C71.1055 63.5005 71.0176 63.4064 70.9504 63.2979C70.8145 63.0784 70.7707 62.814 70.8285 62.5624C70.8864 62.3107 71.0412 62.092 71.2594 61.9539L80.9414 55.8809C81.1608 55.7443 81.4254 55.7005 81.6771 55.759C81.9287 55.8175 82.1469 55.9736 82.2834 56.1929C82.42 56.4123 82.4639 56.6769 82.4054 56.9285C82.3469 57.1802 82.1908 57.3973 81.9714 57.5339Z" fill="white"/>
<path d="M65.9894 56.8739C65.6383 56.5532 65.4093 56.1206 65.3414 55.6499C65.4102 55.1796 65.6391 54.7473 65.9894 54.4259C66.7516 53.7348 67.2156 52.7746 67.2834 51.7479C67.2156 50.7213 66.7516 49.7611 65.9894 49.0699C65.8946 48.9845 65.7838 48.9187 65.6634 48.8763C65.5431 48.8339 65.4155 48.8157 65.2881 48.8228C65.1607 48.8298 65.0359 48.862 64.921 48.9175C64.806 48.9729 64.7032 49.0506 64.6184 49.1459C64.4468 49.3392 64.3585 49.5925 64.3727 49.8506C64.3869 50.1087 64.5026 50.3507 64.6944 50.5239C65.0451 50.8449 65.2737 51.2774 65.3414 51.7479C65.2728 52.2182 65.0444 52.6504 64.6944 52.9719C63.9322 53.6631 63.4682 54.6233 63.4004 55.6499C63.4682 56.6766 63.9322 57.6368 64.6944 58.3279C64.7892 58.4135 64.8999 58.4794 65.0203 58.5218C65.1407 58.5643 65.2683 58.5826 65.3957 58.5755C65.5232 58.5684 65.648 58.5362 65.7629 58.4807C65.8778 58.4251 65.9807 58.3474 66.0654 58.2519C66.237 58.0586 66.3253 57.8054 66.3111 57.5473C66.2969 57.2892 66.1812 57.0472 65.9894 56.8739Z" fill="white"/>
<path d="M60.1652 56.8739C59.8145 56.553 59.5859 56.1205 59.5182 55.6499C59.5867 55.1797 59.8152 54.7474 60.1652 54.4259C60.9274 53.7348 61.3914 52.7746 61.4592 51.7479C61.3914 50.7213 60.9274 49.7611 60.1652 49.0699C60.0703 48.9845 59.9596 48.9187 59.8392 48.8763C59.7188 48.8339 59.5913 48.8157 59.4639 48.8228C59.3364 48.8298 59.2117 48.862 59.0967 48.9175C58.9818 48.9729 58.879 49.0506 58.7942 49.1459C58.6226 49.3392 58.5342 49.5925 58.5485 49.8506C58.5627 50.1087 58.6783 50.3507 58.8702 50.5239C59.2212 50.8447 59.4502 51.2773 59.5182 51.7479C59.4494 52.2183 59.2205 52.6506 58.8702 52.9719C58.1079 53.6631 57.644 54.6233 57.5762 55.6499C57.644 56.6766 58.1079 57.6368 58.8702 58.3279C58.9649 58.4135 59.0757 58.4794 59.1961 58.5218C59.3165 58.5643 59.444 58.5826 59.5715 58.5755C59.699 58.5684 59.8238 58.5362 59.9387 58.4807C60.0536 58.4251 60.1564 58.3474 60.2412 58.2519C60.4128 58.0586 60.5011 57.8054 60.4869 57.5473C60.4726 57.2892 60.357 57.0472 60.1652 56.8739Z" fill="white"/>
<path d="M54.339 56.8739C53.9879 56.5532 53.7589 56.1206 53.691 55.6499C53.7598 55.1796 53.9887 54.7473 54.339 54.4259C55.1012 53.7348 55.5652 52.7746 55.633 51.7479C55.5652 50.7213 55.1012 49.7611 54.339 49.0699C54.2442 48.9845 54.1334 48.9187 54.013 48.8763C53.8927 48.8339 53.7651 48.8157 53.6377 48.8228C53.5103 48.8298 53.3855 48.862 53.2706 48.9175C53.1556 48.9729 53.0528 49.0506 52.968 49.1459C52.7964 49.3392 52.7081 49.5925 52.7223 49.8506C52.7365 50.1087 52.8522 50.3507 53.044 50.5239C53.3951 50.8447 53.6241 51.2773 53.692 51.7479C53.6232 52.2183 53.3943 52.6506 53.044 52.9719C52.2818 53.6631 51.8178 54.6233 51.75 55.6499C51.8177 56.6766 52.2817 57.6369 53.044 58.3279C53.1388 58.4135 53.2495 58.4794 53.3699 58.5218C53.4903 58.5643 53.6179 58.5826 53.7453 58.5755C53.8728 58.5684 53.9976 58.5362 54.1125 58.4807C54.2275 58.4251 54.3303 58.3474 54.415 58.2519C54.5866 58.0586 54.6749 57.8054 54.6607 57.5473C54.6465 57.2892 54.5308 57.0472 54.339 56.8739Z" fill="white"/>
<defs>
<filter id="filter0_d_33_7164" x="0.177734" y="0.22998" width="128" height="129.637" filterUnits="userSpaceOnUse" color-interpolation-filters="sRGB">
<feFlood flood-opacity="0" result="BackgroundImageFix"/>
<feColorMatrix in="SourceAlpha" type="matrix" values="0 0 0 0 0 0 0 0 0 0 0 0 0 0 0 0 0 0 127 0" result="hardAlpha"/>
<feOffset dy="3"/>
<feGaussianBlur stdDeviation="14.5"/>
<feColorMatrix type="matrix" values="0 0 0 0 0.376471 0 0 0 0 0.403922 0 0 0 0 0.478431 0 0 0 0.11 0"/>
<feBlend mode="normal" in2="BackgroundImageFix" result="effect1_dropShadow_33_7164"/>
<feBlend mode="normal" in="SourceGraphic" in2="effect1_dropShadow_33_7164" result="shape"/>
</filter>
</defs>
</svg>
