<svg width="129" height="131" viewBox="0 0 129 131" fill="none" xmlns="http://www.w3.org/2000/svg">
<g filter="url(#filter0_d_33_7194)">
<path d="M64.1777 28.2581C86.2147 36.3881 99.1777 43.9281 99.1777 63.2581C99.1777 72.5407 95.4902 81.4431 88.9265 88.0068C82.3627 94.5706 73.4603 98.2581 64.1777 98.2581C54.8952 98.2581 45.9928 94.5706 39.429 88.0068C32.8652 81.4431 29.1777 72.5407 29.1777 63.2581C29.1777 43.9281 42.1407 20.1281 64.1777 28.2581Z" fill="#80B500"/>
</g>
<path d="M84.6964 66.0685C82.4875 65.1542 80.0456 64.9634 77.7214 65.5235C77.1878 63.2903 76.1808 61.1977 74.7684 59.3875C74.3836 58.9053 73.836 58.5803 73.2284 58.4735C73.5894 58.0855 73.9284 57.6845 74.2464 57.2735C74.2976 57.2075 74.3346 57.1318 74.3554 57.0511C74.3762 56.9703 74.3803 56.8861 74.3674 56.8037C74.3545 56.7213 74.3248 56.6424 74.2803 56.5718C74.2358 56.5013 74.1773 56.4406 74.1084 56.3935C73.9675 56.294 73.7939 56.2523 73.6232 56.2768C73.4525 56.3014 73.2976 56.3903 73.1904 56.5255C72.6972 57.165 72.1567 57.7667 71.5734 58.3255C71.3648 58.5255 71.1524 58.7185 70.9364 58.9045C70.0196 59.25 69.1332 59.6715 68.2864 60.1645C68.1684 59.7645 68.0344 59.3645 67.8864 58.9645L75.4764 51.6935C75.3267 52.5349 75.0605 53.3515 74.6854 54.1195C74.6503 54.1953 74.6308 54.2774 74.6282 54.361C74.6257 54.4445 74.64 54.5278 74.6705 54.6056C74.701 54.6834 74.7469 54.7543 74.8055 54.8139C74.8641 54.8735 74.9341 54.9207 75.0114 54.9525C75.1687 55.0226 75.347 55.0293 75.5091 54.9712C75.6712 54.9131 75.8046 54.7946 75.8814 54.6405C76.613 53.2257 76.9472 51.6391 76.8484 50.0495C76.8308 49.9017 76.7625 49.7646 76.6551 49.6615C76.5477 49.5585 76.4078 49.4959 76.2594 49.4845C73.3284 49.2095 69.6654 50.8035 66.7004 53.6445C66.3254 54.0035 65.9724 54.3745 65.6404 54.7525C64.3029 52.905 62.6555 51.303 60.7714 50.0175C60.2828 49.6916 59.7087 49.5178 59.1214 49.5178C58.5342 49.5178 57.96 49.6916 57.4714 50.0175C55.0176 51.6833 52.9776 53.8886 51.5074 56.4645C51.1614 57.079 50.8519 57.7135 50.5804 58.3645C50.5214 58.3065 50.4634 58.2475 50.4034 58.1905C47.4434 55.3585 43.7814 53.7645 40.8494 54.0395C40.701 54.0509 40.5612 54.1135 40.4538 54.2165C40.3464 54.3196 40.2781 54.4567 40.2604 54.6045C39.9734 57.4125 41.6374 60.9215 44.6024 63.7625C45.7407 64.86 47.0256 65.7946 48.4204 66.5395H48.0124C47.7194 66.5399 47.4381 66.6548 47.2284 66.8595C47.1275 66.9585 47.0481 67.0773 46.9951 67.2084C46.9421 67.3395 46.9167 67.4801 46.9204 67.6215C47.0093 70.9069 48.3258 74.0398 50.6104 76.4025C51.7118 77.5523 53.0339 78.4679 54.4975 79.0946C55.9612 79.7213 57.5363 80.0461 59.1284 80.0495C60.7239 80.0504 62.3025 79.7236 63.7664 79.0895C64.5209 79.6108 65.3514 80.0125 66.2284 80.2805C67.0982 80.5511 68.0036 80.69 68.9144 80.6925C70.1439 80.7113 71.3602 80.4368 72.4624 79.8918C73.5646 79.3468 74.521 78.5469 75.2524 77.5585C76.067 76.4439 76.7226 75.2216 77.2004 73.9265C77.2978 73.8878 77.3954 73.8481 77.4934 73.8075C81.3414 72.1995 84.2284 69.5145 85.0284 66.8005C85.0691 66.6589 85.058 66.5075 84.9971 66.3734C84.9363 66.2392 84.8297 66.1312 84.6964 66.0685ZM82.6064 66.6915L78.1064 68.5725C78.0927 67.9682 78.0416 67.3654 77.9534 66.7675C79.4834 66.4365 81.0635 66.4107 82.6034 66.6915H82.6064ZM67.6284 54.5385C69.5174 52.6376 71.9259 51.3372 74.5514 50.8005L67.3604 57.6895C67.1694 57.2775 66.9604 56.8705 66.7354 56.4685C66.6224 56.2685 66.5044 56.0685 66.3844 55.8735C66.7736 55.4053 67.1889 54.9596 67.6284 54.5385ZM65.5794 57.0645C66.2604 58.2703 66.784 59.5585 67.1374 60.8975C66.6057 61.2667 66.0964 61.6674 65.6124 62.0975C65.3084 59.0915 64.4013 56.1778 62.9454 53.5305C63.969 54.5918 64.8543 55.7782 65.5804 57.0615L65.5794 57.0645ZM59.1284 51.8895C59.7762 54.523 60.1859 57.2095 60.3524 59.9165C60.3687 60.0864 60.4513 60.243 60.5824 60.3524C60.7134 60.4617 60.8824 60.5149 61.0524 60.5005C61.1367 60.4967 61.2193 60.4764 61.2956 60.4406C61.3719 60.4048 61.4404 60.3543 61.4971 60.2919C61.5538 60.2295 61.5976 60.1566 61.626 60.0772C61.6544 59.9978 61.6667 59.9136 61.6624 59.8295C61.4979 57.2848 61.1338 54.7571 60.5734 52.2695C61.6367 53.7075 62.4846 55.2928 63.0904 56.9755C63.8285 59.0109 64.271 61.1415 64.4044 63.3025C63.5205 64.2782 62.7696 65.3666 62.1714 66.5395H61.8234C61.8354 66.0095 61.8434 65.4775 61.8434 64.9395C61.8434 64.2235 61.8324 63.4995 61.8124 62.7885C61.8042 62.6212 61.731 62.4637 61.6085 62.3494C61.4861 62.2352 61.3239 62.1731 61.1564 62.1765H61.1284C61.0441 62.1769 60.9607 62.1939 60.8829 62.2266C60.8052 62.2593 60.7346 62.307 60.6754 62.367C60.6161 62.427 60.5692 62.4982 60.5375 62.5763C60.5058 62.6545 60.4898 62.7381 60.4904 62.8225C60.5104 63.5225 60.5214 64.2345 60.5214 64.9385C60.5214 65.4735 60.5134 66.0055 60.5014 66.5385H57.7424C57.7304 66.0085 57.7224 65.4765 57.7224 64.9385C57.6629 60.548 58.135 56.1665 59.1284 51.8895ZM57.6794 52.2735C56.7846 56.4358 56.3599 60.6854 56.4134 64.9425C56.4134 65.4775 56.4214 66.0095 56.4334 66.5425H53.8474C53.8124 66.0125 53.7934 65.4805 53.7934 64.9425C53.7776 62.227 54.2407 59.5301 55.1614 56.9755C55.7669 55.2951 56.6138 53.7118 57.6754 52.2755L57.6794 52.2735ZM52.6724 57.0655C53.3986 55.7822 54.2839 54.5958 55.3074 53.5345C53.408 57.0338 52.4358 60.9611 52.4834 64.9425C52.4834 65.4775 52.5014 66.0105 52.5344 66.5425H50.6724C50.3391 63.2534 51.0382 59.9422 52.6724 57.0685V57.0655ZM49.4804 59.0895C49.6924 59.2895 49.8971 59.4965 50.0944 59.7105C49.8514 60.4682 49.6623 61.2421 49.5284 62.0265L42.5574 55.3495C45.1832 55.8867 47.5917 57.1879 49.4804 59.0895ZM41.6284 56.2405L49.3284 63.6175C49.2954 64.0565 49.2764 64.4975 49.2764 64.9425C49.2764 65.1425 49.2764 65.3495 49.2884 65.5515C47.9099 64.8487 46.6428 63.946 45.5284 62.8725C43.5754 61.1171 42.2131 58.8005 41.6284 56.2405ZM59.1284 78.7895C57.7151 78.7847 56.3173 78.4946 55.0188 77.9367C53.7202 77.3788 52.5477 76.5644 51.5714 75.5425C49.5542 73.4534 48.3706 70.6987 48.2434 67.7975H61.5984C61.4984 68.0525 61.3984 68.3095 61.3134 68.5715C60.8295 70.0088 60.5734 71.513 60.5544 73.0295C60.5419 73.9825 60.7213 74.9283 61.0821 75.8106C61.4429 76.6928 61.9777 77.4933 62.6544 78.1645C61.5247 78.5773 60.3313 78.7889 59.1284 78.7895ZM62.9164 73.6895C62.7879 74.6809 62.8394 75.6873 63.0684 76.6605C62.2744 75.623 61.8518 74.3488 61.8684 73.0425C61.8872 71.6516 62.1234 70.2723 62.5684 68.9545C63.3132 66.7373 64.6119 64.747 66.3414 63.1725C67.066 62.5077 67.8537 61.9152 68.6934 61.4035C66.5095 63.6573 64.8679 66.3792 63.8934 69.3625C63.4196 70.767 63.0919 72.2167 62.9154 73.6885L62.9164 73.6895ZM65.8164 74.4985C65.4785 75.6972 65.2874 76.9326 65.2474 78.1775C64.7836 77.564 64.4525 76.8607 64.2754 76.1123C64.0982 75.3639 64.0788 74.5868 64.2184 73.8305C64.3851 72.4417 64.6944 71.0738 65.1414 69.7485C66.2671 66.2587 68.3872 63.1734 71.2414 60.8715C69.526 63.8752 68.1236 67.0471 67.0564 70.3375C66.5864 71.7375 66.1704 73.1375 65.8194 74.4995L65.8164 74.4985ZM66.6584 79.0125C66.5224 78.6335 66.4164 77.4175 67.0914 74.8005C67.4344 73.4675 67.8424 72.0955 68.3034 70.7225C69.4079 67.3033 70.8921 64.0188 72.7284 60.9305C72.3375 64.4848 71.5451 67.9835 70.3664 71.3595C69.9054 72.7315 69.4024 74.0745 68.8664 75.3505C67.8284 77.8495 66.9984 78.7825 66.6574 79.0145L66.6584 79.0125ZM74.1824 76.8345C73.3945 77.9111 72.2826 78.7073 71.0094 79.1065C71.7832 78.4482 72.4363 77.66 72.9394 76.7775C73.4068 75.9746 73.8219 75.1426 74.1824 74.2865C74.2143 74.209 74.2301 74.126 74.229 74.0423C74.2278 73.9586 74.2098 73.876 74.1758 73.7994C74.1419 73.7229 74.0929 73.654 74.0316 73.597C73.9704 73.5399 73.8982 73.4959 73.8194 73.4675C73.6596 73.404 73.4813 73.4048 73.322 73.4697C73.1627 73.5345 73.0346 73.6584 72.9644 73.8155C72.6245 74.6224 72.233 75.4067 71.7924 76.1635C71.4377 76.8629 70.9472 77.4848 70.3495 77.9926C69.7518 78.5005 69.059 78.8842 68.3114 79.1215C69.0331 78.0938 69.6293 76.9836 70.0874 75.8145C70.6304 74.5145 71.1444 73.1415 71.6144 71.7415C72.7457 68.4868 73.5359 65.1234 73.9724 61.7055C74.8013 64.7876 74.7747 68.0373 73.8954 71.1055C73.8749 71.1868 73.8708 71.2714 73.8835 71.3544C73.8962 71.4373 73.9255 71.5168 73.9695 71.5883C74.0135 71.6597 74.0714 71.7216 74.1397 71.7702C74.2081 71.8189 74.2855 71.8533 74.3674 71.8715C74.5334 71.9148 74.7097 71.8919 74.859 71.8075C75.0083 71.7232 75.119 71.584 75.1674 71.4195C75.8765 68.8556 76.0595 66.1749 75.7054 63.5385C76.0833 64.4341 76.3674 65.3664 76.5534 66.3205C76.9986 68.5877 76.8431 70.9319 76.1024 73.1205C75.6563 74.4484 75.0084 75.6997 74.1814 76.8305L74.1824 76.8345ZM77.6944 72.3345C77.887 71.5558 78.0141 70.7623 78.0744 69.9625L83.1284 67.8495C81.7691 69.8203 79.8869 71.3728 77.6934 72.3325L77.6944 72.3345Z" fill="white"/>
<path d="M51.2175 73.0405C51.5804 73.0405 51.8745 72.7589 51.8745 72.4115C51.8745 72.0641 51.5804 71.7825 51.2175 71.7825C50.8547 71.7825 50.5605 72.0641 50.5605 72.4115C50.5605 72.7589 50.8547 73.0405 51.2175 73.0405Z" fill="white"/>
<path d="M53.407 75.4724C53.7699 75.4724 54.064 75.1907 54.064 74.8434C54.064 74.496 53.7699 74.2144 53.407 74.2144C53.0441 74.2144 52.75 74.496 52.75 74.8434C52.75 75.1907 53.0441 75.4724 53.407 75.4724Z" fill="white"/>
<path d="M56.1199 76.8144C56.4827 76.8144 56.7769 76.5328 56.7769 76.1854C56.7769 75.838 56.4827 75.5564 56.1199 75.5564C55.757 75.5564 55.4629 75.838 55.4629 76.1854C55.4629 76.5328 55.757 76.8144 56.1199 76.8144Z" fill="white"/>
<path d="M51.3933 70.5244C51.7562 70.5244 52.0503 70.2427 52.0503 69.8954C52.0503 69.548 51.7562 69.2664 51.3933 69.2664C51.0305 69.2664 50.7363 69.548 50.7363 69.8954C50.7363 70.2427 51.0305 70.5244 51.3933 70.5244Z" fill="white"/>
<path d="M54.0183 73.1245C54.3812 73.1245 54.6753 72.8428 54.6753 72.4955C54.6753 72.1481 54.3812 71.8665 54.0183 71.8665C53.6555 71.8665 53.3613 72.1481 53.3613 72.4955C53.3613 72.8428 53.6555 73.1245 54.0183 73.1245Z" fill="white"/>
<defs>
<filter id="filter0_d_33_7194" x="0.177734" y="0.62085" width="128" height="129.637" filterUnits="userSpaceOnUse" color-interpolation-filters="sRGB">
<feFlood flood-opacity="0" result="BackgroundImageFix"/>
<feColorMatrix in="SourceAlpha" type="matrix" values="0 0 0 0 0 0 0 0 0 0 0 0 0 0 0 0 0 0 127 0" result="hardAlpha"/>
<feOffset dy="3"/>
<feGaussianBlur stdDeviation="14.5"/>
<feColorMatrix type="matrix" values="0 0 0 0 0.882353 0 0 0 0 0.141176 0 0 0 0 0.329412 0 0 0 0.11 0"/>
<feBlend mode="normal" in2="BackgroundImageFix" result="effect1_dropShadow_33_7194"/>
<feBlend mode="normal" in="SourceGraphic" in2="effect1_dropShadow_33_7194" result="shape"/>
</filter>
</defs>
</svg>
