<svg width="129" height="131" viewBox="0 0 129 131" fill="none" xmlns="http://www.w3.org/2000/svg">
<g filter="url(#filter0_d_33_7185)">
<path d="M64.2402 28.2964C86.2772 36.4264 99.2402 43.9664 99.2402 63.2964C99.2402 72.579 95.5527 81.4814 88.989 88.0452C82.4252 94.6089 73.5228 98.2964 64.2402 98.2964C54.9577 98.2964 46.0553 94.6089 39.4915 88.0452C32.9277 81.4814 29.2402 72.579 29.2402 63.2964C29.2402 43.9664 42.2032 20.1664 64.2402 28.2964Z" fill="#80B500"/>
</g>
<path d="M78.0972 58.7544C78.3442 58.0601 78.3913 57.3104 78.233 56.5907C78.0748 55.8709 77.7176 55.2101 77.2022 54.6834C76.5965 54.055 75.8113 53.6293 74.9542 53.4644C74.7041 52.852 74.3129 52.3074 73.8124 51.8749C73.3119 51.4424 72.7164 51.1342 72.0742 50.9754C71.8573 49.996 71.3096 49.1213 70.5234 48.4984C69.7371 47.8755 68.7602 47.5425 67.7572 47.5554C66.6164 47.5512 65.5172 47.9829 64.6842 48.7624C63.9002 48.1334 62.9244 47.7918 61.9192 47.7944C61.0826 47.7877 60.2619 48.0239 59.5569 48.4744C58.8518 48.9249 58.2927 49.5704 57.9472 50.3324C57.1704 49.5861 56.292 48.9531 55.3382 48.4524C54.0148 47.7448 52.6055 47.2114 51.1452 46.8654L50.4242 46.7124L50.0462 47.3244C48.8534 49.3402 48.1601 51.6121 48.0242 53.9504C47.9951 55.0394 48.2064 56.1214 48.6432 57.1194C48.9124 57.7096 49.2614 58.2601 49.6802 58.7554H46.8242V59.7374C46.8252 62.8172 47.7235 65.8299 49.4092 68.4074C50.9587 70.7734 53.0802 72.7102 55.5772 74.0384V78.3984H72.0772V74.0384C74.5743 72.7103 76.6958 70.7735 78.2452 68.4074C79.9311 65.83 80.8293 62.8172 80.8302 59.7374V58.7554L78.0972 58.7544ZM61.9192 49.7544C62.2291 49.7531 62.5361 49.8144 62.8217 49.9347C63.1073 50.055 63.3656 50.2318 63.5812 50.4544C63.4339 50.881 63.3589 51.3291 63.3592 51.7804C63.3592 51.9224 63.3672 52.0624 63.3802 52.2004C62.4163 52.4854 61.5844 53.1025 61.0322 53.9424C60.6287 53.7829 60.2818 53.5068 60.0359 53.1494C59.7899 52.7919 59.656 52.3693 59.6512 51.9354C59.6636 51.3459 59.9091 50.7853 60.334 50.3765C60.759 49.9676 61.3286 49.744 61.9182 49.7544H61.9192ZM65.4022 51.7804C65.4028 51.2666 65.5832 50.7691 65.9122 50.3744C66.1374 50.1037 66.4197 49.8863 66.7389 49.7376C67.058 49.5889 67.4061 49.5127 67.7582 49.5144C68.2279 49.5099 68.6883 49.6458 69.0803 49.9047C69.4722 50.1636 69.778 50.5336 69.9582 50.9674C69.4058 51.1043 68.8866 51.3509 68.4314 51.6924C67.9762 52.0339 67.5942 52.4634 67.3082 52.9554C66.7587 52.5216 66.1123 52.2276 65.4242 52.0984C65.409 51.9948 65.4013 51.8902 65.4012 51.7854L65.4022 51.7804ZM74.1912 55.3434C74.7635 55.3613 75.3063 55.6017 75.7042 56.0134C76.0583 56.3758 76.2642 56.8574 76.2816 57.3637C76.299 57.87 76.1266 58.3646 75.7982 58.7504H71.9312C71.9504 58.0756 71.7988 57.4069 71.4904 56.8063C71.182 56.2058 70.7269 55.6929 70.1672 55.3154C69.8286 55.0824 69.4581 54.8995 69.0672 54.7724C68.9842 54.7454 68.8992 54.7204 68.8142 54.6984L68.9012 54.3724C69.0319 53.9256 69.3028 53.5328 69.674 53.2519C70.0451 52.9709 70.4968 52.8169 70.9622 52.8124C71.0062 52.8124 71.0492 52.8124 71.0932 52.8124C71.3942 52.8237 71.6898 52.8958 71.9622 53.0244C72.2662 53.1644 72.5326 53.3747 72.7393 53.638C72.9461 53.9012 73.0873 54.2099 73.1512 54.5384L73.2962 55.3384L74.1372 55.3534H74.1892L74.1912 55.3434ZM59.1912 58.7504C59.1367 58.4579 59.1471 58.1571 59.2215 57.869C59.296 57.581 59.4328 57.3128 59.6222 57.0834L59.6432 57.0584C59.7776 56.8987 59.9346 56.7596 60.1092 56.6454C60.4942 56.3922 60.9489 56.2663 61.4092 56.2854L62.3022 56.3494L62.3802 56.0564L62.5142 55.5564C62.5669 55.3591 62.6492 55.171 62.7582 54.9984C63.0575 54.5329 63.522 54.1981 64.0582 54.0614C64.1778 54.0292 64.2999 54.0074 64.4232 53.9964C64.518 53.9879 64.6131 53.9852 64.7082 53.9884C64.9594 53.9981 65.2071 54.0498 65.4412 54.1414C65.4762 54.1554 65.5102 54.1694 65.5412 54.1854C65.745 54.2776 65.9335 54.4004 66.1002 54.5494C66.1484 54.5914 66.1945 54.6358 66.2382 54.6824C66.4249 54.8802 66.5707 55.113 66.6672 55.3674C66.7111 55.4801 66.7446 55.5966 66.7672 55.7154L66.8022 55.9154L66.9122 56.5154L67.7532 56.5304H67.8052C68.0851 56.5357 68.3612 56.5962 68.6177 56.7082C68.8742 56.8202 69.1061 56.9817 69.3002 57.1834C69.4943 57.3851 69.6467 57.6231 69.7488 57.8837C69.8509 58.1444 69.9007 58.4225 69.8952 58.7024C69.8952 58.7204 69.8952 58.7384 69.8952 58.7564H59.1952L59.1912 58.7504ZM50.5172 56.3374C50.1952 55.5924 50.0413 54.7856 50.0662 53.9744C50.1638 52.2304 50.6348 50.5277 51.4472 48.9814C52.4476 49.2779 53.4158 49.6738 54.3372 50.1634C55.7659 50.8344 56.9355 51.9548 57.6672 53.3534C57.7222 53.4774 57.7732 53.6044 57.8172 53.7284C57.8292 53.7614 57.8402 53.7964 57.8512 53.8284V53.8354C58.0444 54.4544 58.1336 55.1012 58.1152 55.7494L58.0862 55.7814L58.0492 55.8254C57.4755 56.4972 57.1447 57.3426 57.1102 58.2254C57.1032 58.4025 57.1079 58.5799 57.1242 58.7564H56.9652L53.9652 52.1004L52.0912 52.8824L54.7412 58.7564H52.6132C51.7148 58.1468 50.9909 57.3134 50.5132 56.3384L50.5172 56.3374ZM78.7552 60.7194C78.7081 61.3945 78.6119 62.0653 78.4672 62.7264H49.1882C49.0436 62.0653 48.9473 61.3945 48.9002 60.7194H78.7552ZM57.6242 76.4334V74.4334H70.0362V76.4334H57.6242ZM70.8142 72.4664H56.8462C53.5999 70.8484 51.0762 68.0747 49.7712 64.6904H77.8842C76.5793 68.0747 74.0556 70.8485 70.8092 72.4664H70.8142Z" fill="white"/>
<defs>
<filter id="filter0_d_33_7185" x="0.240234" y="0.65918" width="128" height="129.637" filterUnits="userSpaceOnUse" color-interpolation-filters="sRGB">
<feFlood flood-opacity="0" result="BackgroundImageFix"/>
<feColorMatrix in="SourceAlpha" type="matrix" values="0 0 0 0 0 0 0 0 0 0 0 0 0 0 0 0 0 0 127 0" result="hardAlpha"/>
<feOffset dy="3"/>
<feGaussianBlur stdDeviation="14.5"/>
<feColorMatrix type="matrix" values="0 0 0 0 0.376471 0 0 0 0 0.403922 0 0 0 0 0.478431 0 0 0 0.11 0"/>
<feBlend mode="normal" in2="BackgroundImageFix" result="effect1_dropShadow_33_7185"/>
<feBlend mode="normal" in="SourceGraphic" in2="effect1_dropShadow_33_7185" result="shape"/>
</filter>
</defs>
</svg>
