<svg width="72" height="72" viewBox="0 0 72 72" fill="none" xmlns="http://www.w3.org/2000/svg">
<rect width="72" height="72" rx="36" fill="#D9D9D9"/>
<path d="M42 32C42 32.5304 41.7893 33.0391 41.4142 33.4142C41.0391 33.7893 40.5304 34 40 34C39.4696 34 38.9609 33.7893 38.5858 33.4142C38.2107 33.0391 38 32.5304 38 32C38 31.4696 38.2107 30.9609 38.5858 30.5858C38.9609 30.2107 39.4696 30 40 30C40.5304 30 41.0391 30.2107 41.4142 30.5858C41.7893 30.9609 42 31.4696 42 32Z" fill="black"/>
<path fill-rule="evenodd" clip-rule="evenodd" d="M35.943 25.25H36.057C38.366 25.25 40.175 25.25 41.587 25.44C43.031 25.634 44.171 26.04 45.066 26.934C45.961 27.829 46.366 28.969 46.56 30.414C46.75 31.825 46.75 33.634 46.75 35.943V36.031C46.75 37.94 46.75 39.502 46.646 40.774C46.542 42.054 46.329 43.121 45.851 44.009C45.641 44.4 45.381 44.751 45.066 45.066C44.171 45.961 43.031 46.366 41.586 46.56C40.175 46.75 38.366 46.75 36.057 46.75H35.943C33.634 46.75 31.825 46.75 30.413 46.56C28.969 46.366 27.829 45.96 26.934 45.066C26.141 44.273 25.731 43.286 25.514 42.06C25.299 40.857 25.26 39.36 25.252 37.502C25.25 37.029 25.25 36.529 25.25 36.001V35.943C25.25 33.634 25.25 31.825 25.44 30.413C25.634 28.969 26.04 27.829 26.934 26.934C27.829 26.039 28.969 25.634 30.414 25.44C31.825 25.25 33.634 25.25 35.943 25.25ZM30.613 26.926C29.335 27.098 28.564 27.426 27.995 27.995C27.425 28.565 27.098 29.335 26.926 30.614C26.752 31.914 26.75 33.622 26.75 36V36.844L27.751 35.968C28.1901 35.5837 28.7588 35.3806 29.342 35.3999C29.9252 35.4192 30.4793 35.6594 30.892 36.072L35.182 40.362C35.5149 40.6948 35.9546 40.8996 36.4235 40.9402C36.8925 40.9808 37.3608 40.8547 37.746 40.584L38.044 40.374C38.5997 39.9835 39.2714 39.7932 39.9493 39.834C40.6273 39.8749 41.2713 40.1446 41.776 40.599L44.606 43.146C44.892 42.548 45.061 41.762 45.151 40.653C45.249 39.448 45.25 37.946 45.25 36C45.25 33.622 45.248 31.914 45.074 30.614C44.902 29.335 44.574 28.564 44.005 27.994C43.435 27.425 42.665 27.098 41.386 26.926C40.086 26.752 38.378 26.75 36 26.75C33.622 26.75 31.913 26.752 30.613 26.926Z" fill="black"/>
</svg>
